<svg width="192" height="160" viewBox="0 0 192 160" fill="none" xmlns="http://www.w3.org/2000/svg">
<path fill-rule="evenodd" clip-rule="evenodd" d="M173.175 128.806C173.175 120.164 155.693 114.8 146.211 109.733C139.099 105.859 139.988 105.263 139.099 101.687C136.729 101.985 130.21 106.157 120.431 103.177C119.246 102.879 119.246 102.581 118.061 102.283L116.283 101.985C115.098 105.561 116.283 104.667 113.32 107.051C102.356 115.395 82.2071 118.376 82.2071 129.104C82.2071 135.958 80.4292 145.494 89.9112 145.494H166.064C174.953 145.494 173.175 135.064 173.175 128.806ZM151.248 56.9863C151.841 51.6222 148.878 45.3641 146.803 42.6821C136.432 29.8677 118.061 30.7617 108.875 43.576C106.208 47.4501 104.727 52.5161 104.727 58.4763C104.727 63.5424 101.764 60.5623 99.6896 62.9465C97.3189 65.9264 98.8005 75.4626 102.949 76.6546C106.505 77.8466 107.394 75.7607 108.875 79.9328C109.764 82.3168 110.357 84.403 111.542 86.4889C117.468 98.1111 129.617 101.985 139.396 94.237L143.84 89.469C144.729 88.277 145.026 87.6809 145.618 86.4889C146.803 84.1049 147.396 82.3168 148.285 79.9328C150.063 75.1646 150.952 77.8466 154.507 76.3568C158.656 74.5687 159.545 65.0325 157.174 62.6485C154.507 59.9664 148.285 67.4165 133.766 63.2443C128.432 61.7543 125.172 59.3703 121.617 56.6882C108.579 46.5561 116.876 42.384 119.839 46.5561C126.95 56.6882 137.914 61.1584 151.248 56.9863ZM163.397 69.5026C161.915 82.9129 154.211 81.4229 152.73 83.8069C152.137 84.7008 150.952 88.277 150.359 89.469C149.47 91.2569 148.285 93.3431 147.1 94.5351C145.914 96.3232 144.729 97.5152 145.322 101.091C145.618 102.879 147.396 104.071 149.766 105.263C158.359 110.329 168.138 112.117 175.546 119.866C179.101 123.442 179.101 126.72 179.101 132.978C179.101 138.938 179.694 143.11 176.435 146.686C173.471 150.262 170.805 151.454 164.582 151.454H115.69C108.579 151.454 89.3185 152.348 84.2812 150.262C80.7255 148.772 78.0587 145.494 77.1696 141.024C76.5771 138.044 76.8735 128.806 77.466 125.826C80.7255 111.521 109.764 107.647 110.653 101.091C111.246 97.8133 110.357 96.621 109.171 94.8331C105.023 89.469 104.727 86.1909 103.542 84.1049C102.356 82.3168 99.9857 82.6149 97.9116 81.1248C93.1705 77.2507 89.0223 64.1385 96.7264 57.8802C99.3932 55.4962 98.5042 56.6882 99.3932 52.5161C104.134 25.6956 137.914 19.7355 152.137 40.5959C157.471 48.6421 156.582 52.8142 157.471 55.7943C158.063 57.2843 157.767 56.6882 159.545 57.8802C162.508 59.6683 163.989 64.4363 163.397 69.5026Z" fill="#941B80"/>
<path d="M99.6993 152.646C102.959 152.646 106.218 152.646 109.774 152.646C111.848 152.646 113.922 152.646 115.404 152.646H164.296C170.518 152.646 173.481 151.454 177.037 147.58C180 144.004 180 140.13 180 135.362C180 134.766 180 133.872 180 133.276V132.68C180 126.72 180 123.442 176.148 119.568C171.111 114.204 164.888 111.522 158.962 108.84C155.999 107.648 153.036 106.157 150.072 104.667L149.776 104.369C147.702 103.177 146.517 102.283 146.22 101.091C145.628 98.1113 146.517 97.2171 147.702 95.4293C148.887 93.6411 150.369 91.853 150.962 90.0651C151.258 89.7671 151.554 88.8731 151.85 87.979C152.443 86.787 153.036 84.9989 153.332 84.701C153.628 84.403 154.221 84.1049 155.11 83.8069C158.073 82.6149 163.11 80.5289 164.296 70.0987C164.888 64.4366 163.11 59.3705 159.554 56.9863C158.962 56.6884 158.666 56.3904 158.369 56.3904C158.369 56.3904 158.073 56.3904 158.073 56.0923C158.073 56.0923 158.073 55.7943 157.777 55.4962C157.48 54.9003 157.48 54.0064 157.48 53.1122C157.184 50.4302 156.592 45.96 152.443 40C145.628 29.8678 133.183 25.0997 121.034 27.7817C108.885 30.4638 99.9956 40 97.6252 52.5163C97.3288 53.7083 97.3288 54.3042 97.3288 54.9003C97.3288 55.7943 97.3288 55.7943 95.8472 56.9863L95.2547 57.2843C91.4025 60.5625 90.5136 65.0325 90.5136 68.3106C90.5136 73.6747 93.1804 79.6347 96.4399 82.3168C97.3288 83.211 98.514 83.509 99.4029 83.8069C100.588 84.1049 101.181 84.403 101.477 84.9989C101.774 85.595 102.07 86.4889 102.662 87.3831C103.551 89.469 104.44 92.1511 107.403 95.7271C108.589 97.5152 109.181 98.4091 108.885 101.389C108.589 103.475 103.255 105.859 97.9213 108.243C89.032 112.117 77.7722 117.184 75.6979 126.124C75.1054 129.104 74.809 138.342 75.4015 141.918C76.2906 146.686 78.9574 149.964 83.1059 152.05C86.3652 152.348 92.5879 152.646 99.6993 152.646ZM115.404 150.262C113.922 150.262 112.144 150.262 109.774 150.262C101.774 150.56 88.1431 150.858 84.5872 149.07C81.0315 147.58 78.9575 144.6 78.0684 140.428C77.4759 137.448 77.7722 128.508 78.3647 125.528C80.1427 117.78 90.8099 113.012 99.4029 109.137C105.922 106.157 111.256 104.071 111.552 100.495C112.144 96.9193 111.552 95.4293 109.774 93.3431C107.107 90.0651 106.218 87.3831 105.329 85.595C105.033 84.403 104.44 83.509 104.144 82.9129C103.255 81.7209 102.07 81.1248 100.884 80.827C99.9956 80.5289 99.1068 80.2309 98.514 79.6347C96.1436 77.8469 93.4768 72.7808 93.4768 67.4167C93.4768 64.7346 94.0693 60.5625 97.3288 58.1783L97.6252 57.8805C99.4029 56.3904 99.6993 56.0923 99.6993 54.3042C99.6993 53.7083 99.6993 53.1122 99.9956 52.2183C102.07 40.5961 110.367 31.6558 121.627 29.2718C132.886 26.8877 144.443 31.3578 150.962 40.5961C154.814 46.2581 155.11 50.1321 155.702 52.8142C155.702 53.7083 155.999 54.6023 156.295 55.4962C156.592 56.6884 156.888 56.9863 157.777 57.5824C158.073 57.5824 158.369 57.8804 158.666 58.1783C161.629 59.9664 163.11 64.4366 162.518 69.2046C161.629 78.4427 157.48 79.9328 154.814 81.1248C153.628 81.7209 152.443 82.019 151.85 82.9129C151.554 83.509 150.962 84.9988 150.072 86.787C149.776 87.6809 149.48 88.277 149.184 88.5751C148.591 90.0651 147.406 91.853 145.924 93.6411C144.443 95.4293 143.257 97.2171 143.85 100.793C144.146 103.177 146.22 104.369 148.295 105.561L148.591 105.859C151.554 107.648 154.814 108.84 157.777 110.33C163.703 113.012 169.629 115.396 174.37 120.462C177.63 123.74 177.63 126.72 177.63 132.084V132.68C177.63 133.574 177.63 134.17 177.63 134.766C177.63 139.236 177.63 142.812 175.259 145.494C172.592 148.474 170.518 149.964 164.296 149.964C164.296 149.964 164.296 149.964 163.999 149.964L115.404 150.262ZM90.5136 146.686H166.073C168.444 146.686 170.518 146.09 171.703 144.6C174.667 141.62 174.37 136.256 174.37 131.488C174.37 130.594 174.37 129.7 174.37 128.806C174.37 121.654 163.999 116.886 154.517 112.714C151.554 111.522 148.887 110.032 146.813 108.84C141.183 105.859 140.887 104.965 140.59 102.879C140.59 102.581 140.294 101.985 140.294 101.687L139.998 100.793H139.109C138.516 100.793 137.627 101.091 136.442 101.389C133.183 102.581 127.849 104.369 121.034 101.985C120.441 101.687 120.145 101.687 119.849 101.389C119.552 101.091 119.256 101.091 118.663 100.793H118.367L115.7 100.495L115.404 101.389C115.108 102.581 115.108 103.177 114.811 103.773C114.811 104.667 114.811 104.667 113.033 105.859C108.885 108.84 103.848 111.224 99.1068 113.608C90.2172 117.78 81.6243 121.654 81.6243 129.104C81.6243 129.998 81.6243 130.892 81.6243 131.786C81.6243 136.256 81.3279 141.322 83.9947 144.004C85.4763 145.792 87.5504 146.686 90.5136 146.686ZM138.516 103.177C139.109 106.157 139.702 107.349 145.924 110.925C148.295 112.117 150.962 113.309 153.925 114.8C162.518 118.674 172.296 123.144 172.296 129.104C172.296 129.998 172.296 130.892 172.296 131.786C172.296 135.958 172.592 140.726 170.222 143.11C169.333 144.004 167.851 144.6 166.073 144.6H90.2172C88.1431 144.6 86.3652 144.004 85.4763 143.11C83.402 140.726 83.402 136.256 83.6984 132.382C83.6984 131.488 83.6984 130.594 83.6984 129.7C83.6984 123.442 91.6988 119.866 99.9956 116.29C105.033 113.906 110.367 111.522 114.219 108.541C116.589 106.753 116.589 106.753 116.885 104.965C116.885 104.667 116.885 104.369 117.182 103.773H118.071C118.367 103.773 118.663 104.071 118.663 104.071C118.96 104.369 119.552 104.369 120.145 104.667C127.849 107.349 133.775 104.965 137.035 104.071C137.924 103.177 138.22 103.177 138.516 103.177ZM128.145 99.6014C131.997 99.6014 136.146 98.1113 139.702 95.4293L144.146 90.363C145.035 88.8731 145.332 88.277 146.22 87.085C147.406 84.701 148.295 82.6148 148.887 80.5289C149.776 78.1449 150.072 78.1449 150.962 78.1449C151.85 78.1449 152.739 78.1449 154.221 77.5488C156.295 76.6549 157.777 74.2706 158.369 70.6946C158.962 67.7145 158.666 63.8405 157.184 62.0526C155.702 60.5625 153.628 61.1584 150.962 62.0526C147.406 63.2446 141.776 65.0324 133.183 62.3504C127.849 60.8603 124.886 58.4763 121.33 55.7943C115.997 51.6222 114.219 48.3442 114.515 46.8542C114.515 46.258 115.108 45.96 115.404 45.96C115.997 45.6622 117.182 45.9602 117.774 47.1522C126.367 58.4763 137.924 62.3504 150.962 58.1783L151.554 57.8805V57.2843C152.443 51.3241 148.887 44.768 146.813 42.0859C141.776 35.8279 134.368 32.2518 126.664 32.5498C118.96 32.8478 111.848 36.7218 107.403 43.2782C104.737 47.1522 102.959 52.5163 102.959 58.7744C102.959 60.8603 102.662 60.8603 101.477 61.1584C100.588 61.1584 99.1068 61.4565 98.2177 62.9465C96.4399 65.3305 96.4399 69.8007 97.6252 73.0786C98.514 76.0587 99.9956 77.8469 101.774 78.4427C102.959 78.7408 104.144 78.7408 104.737 78.7408C105.922 78.7408 106.218 78.7408 106.811 81.1248C107.7 83.509 108.292 85.2969 109.478 87.979C112.737 94.2373 117.774 98.7072 123.701 99.8992C125.479 99.6014 126.96 99.6014 128.145 99.6014ZM154.814 63.2446C155.11 63.2446 155.406 63.2446 155.702 63.5424C156.592 64.4366 156.888 67.1186 156.295 70.3966C155.702 73.0786 154.517 74.8667 153.332 75.4629C152.147 76.0587 151.554 76.0587 150.665 76.0587C148.591 76.0587 147.702 76.6549 146.517 79.6347C145.628 82.019 145.035 83.8069 143.85 86.1911C143.257 87.3831 142.961 87.979 142.072 89.171L137.627 93.9392C133.775 96.9193 129.034 98.1113 124.293 97.2171C118.96 96.0251 114.515 92.1511 111.552 86.4889C110.367 84.403 109.774 82.6149 108.885 79.9328C107.7 76.6549 106.811 76.0587 104.737 76.0587C104.144 76.0587 103.255 76.0587 102.366 75.7607C101.181 75.4629 100.292 73.9728 99.4029 71.8866C98.514 68.9065 98.514 65.3305 99.6993 63.8405C100.292 63.2446 100.588 62.9465 101.477 62.9465C103.255 62.6485 104.737 62.0526 104.737 58.4763C104.737 52.8142 106.218 47.7481 108.885 44.1721C113.033 38.2119 119.552 34.6359 126.664 34.3378C133.775 34.0398 140.59 37.3179 145.332 42.9801C147.406 45.6622 150.072 51.3241 149.776 55.7943C137.924 59.3703 127.553 55.7943 119.552 45.3641C118.367 43.874 116.589 42.9801 114.811 43.576C113.33 43.8741 112.441 44.768 112.144 46.258C111.848 48.0462 112.144 51.6222 119.552 57.2843C123.404 60.2645 126.664 62.3504 132.294 64.1385C141.183 66.8206 147.406 65.0325 151.258 63.8405C153.036 63.5424 154.221 63.2446 154.814 63.2446Z" fill="white"/>
<path d="M97.3321 12.5837L95.2578 20.9279" stroke="#941B80" stroke-width="3" stroke-miterlimit="10" stroke-linecap="round" stroke-linejoin="round"/>
<path d="M74.8169 35.2322H81.3358V96.3234H74.8169V35.2322Z" stroke="#941B80" stroke-width="3" stroke-miterlimit="10" stroke-linecap="round" stroke-linejoin="round"/>
<path d="M74.8169 43.5762C74.8169 41.7883 76.2985 40.5963 78.0764 40.5963C79.8542 40.5963 81.3358 41.7883 81.3358 43.5762V101.986C81.3358 103.774 79.8542 104.966 78.0764 104.966C76.2985 104.966 74.8169 103.774 74.8169 101.986V43.5762Z" stroke="#941B80" stroke-width="3" stroke-miterlimit="10" stroke-linecap="round" stroke-linejoin="round"/>
<path d="M100.897 34.9343H55.2646V23.312H100.897V34.9343Z" stroke="#941B80" stroke-width="3" stroke-miterlimit="10" stroke-linecap="round" stroke-linejoin="round"/>
<path d="M100.596 23.3119L103.559 12.2856H51.1118L54.9639 23.3119H100.596Z" stroke="#941B80" stroke-width="3" stroke-miterlimit="10" stroke-linecap="round" stroke-linejoin="round"/>
<path d="M91.1046 12.5837L89.0303 20.9279" stroke="#941B80" stroke-width="3" stroke-miterlimit="10" stroke-linecap="round" stroke-linejoin="round"/>
<path d="M58.5195 12.5837L60.5936 20.9279" stroke="#941B80" stroke-width="3" stroke-miterlimit="10" stroke-linecap="round" stroke-linejoin="round"/>
<path d="M64.7466 12.5837L66.8207 20.9279" stroke="#941B80" stroke-width="3" stroke-miterlimit="10" stroke-linecap="round" stroke-linejoin="round"/>
<path d="M46.0789 16.1598C46.0789 16.1598 13.7808 14.3718 7.85449 38.2123" stroke="#941B80" stroke-width="3" stroke-miterlimit="10" stroke-linecap="round" stroke-linejoin="round"/>
<path d="M47.8615 31.3583C47.8615 31.3583 21.7859 29.8682 16.7485 49.2387" stroke="#941B80" stroke-width="3" stroke-miterlimit="10" stroke-linecap="round" stroke-linejoin="round"/>
</svg>
