<svg width="192" height="160" viewBox="0 0 192 160" fill="none" xmlns="http://www.w3.org/2000/svg">
<path fill-rule="evenodd" clip-rule="evenodd" d="M122.225 17.4286C131.726 21.8677 127.866 28.3783 134.695 33.7052C140.632 36.9604 147.758 33.7052 152.508 42.5833C158.148 51.7573 151.617 55.0127 154.289 63.2988C157.555 68.9216 164.977 70.1053 164.086 80.1673C163.789 90.821 156.367 89.9331 154.289 98.5153C153.992 105.026 159.633 110.057 153.398 118.343C147.461 127.221 141.82 122.19 135.585 128.405C131.429 133.732 133.804 141.13 124.007 144.681C114.21 148.825 112.131 141.722 103.522 143.202C97.2872 145.569 94.912 152.968 85.1149 150.6C74.7238 148.825 76.5052 141.722 68.1924 138.467C61.661 136.987 56.0201 142.018 48.895 134.62C40.8791 127.517 46.2231 122.486 41.4728 115.384C36.7227 110.649 29.3005 111.832 26.9255 101.771C23.6599 91.4128 31.3788 90.525 30.785 81.647C29.3005 75.4322 22.1754 71.881 25.738 62.411C29.3005 52.0533 36.1289 55.3085 40.2853 47.9101C42.3636 41.6955 38.5041 34.889 46.8167 28.9702C55.1295 22.1636 58.989 28.3783 67.0049 24.827C72.3488 20.6839 72.0518 12.9896 82.7397 12.3977C93.4275 11.2139 93.4275 18.6124 102.037 19.5002C108.866 18.9083 113.319 12.3977 122.225 17.4286Z" stroke="#941B80" stroke-width="3" stroke-miterlimit="10"/>
<path d="M94.6174 128.996C121.508 128.996 143.306 107.267 143.306 80.4629C143.306 53.6585 121.508 31.9292 94.6174 31.9292C67.727 31.9292 45.9282 53.6585 45.9282 80.4629C45.9282 107.267 67.727 128.996 94.6174 128.996Z" stroke="#941B80" stroke-width="3" stroke-miterlimit="10"/>
<path d="M169.72 105.026H19.1997C9.99633 105.026 2.27734 97.3315 2.27734 88.1574V72.7686C2.27734 63.5946 9.99633 55.9003 19.1997 55.9003H169.72C178.924 55.9003 186.643 63.5946 186.643 72.7686V88.1574C186.643 97.6274 179.221 105.026 169.72 105.026Z" fill="#941B80" stroke="white" stroke-width="0.75" stroke-miterlimit="10"/>
<path d="M45.1891 81.867C45.1891 82.2604 45.1663 82.6767 45.1207 83.1154H35.147C35.2228 84.3411 35.6402 85.302 36.3994 85.9981C37.1736 86.6791 38.1072 87.0196 39.2003 87.0196C40.0958 87.0196 40.8398 86.8153 41.4318 86.4067C42.0389 85.9829 42.464 85.4232 42.707 84.727H44.9386C44.6045 85.9225 43.9366 86.8986 42.9347 87.6551C41.9328 88.3967 40.6879 88.7673 39.2003 88.7673C38.0162 88.7673 36.9534 88.5024 36.0123 87.9729C35.0862 87.4433 34.3575 86.6943 33.8263 85.7257C33.2948 84.7422 33.0293 83.6073 33.0293 82.321C33.0293 81.0347 33.2873 79.9075 33.8035 78.9389C34.3195 77.9704 35.0407 77.229 35.9668 76.7145C36.9079 76.1849 37.9856 75.92 39.2003 75.92C40.3844 75.92 41.4318 76.1772 42.3427 76.6918C43.2535 77.2063 43.9517 77.9175 44.4376 78.8254C44.9386 79.7182 45.1891 80.7321 45.1891 81.867ZM43.0486 81.4357C43.0486 80.6488 42.8739 79.9756 42.5248 79.4156C42.1755 78.8406 41.6973 78.4094 41.0903 78.1218C40.4982 77.8192 39.8379 77.6678 39.1092 77.6678C38.0617 77.6678 37.1659 78.0008 36.4222 78.6665C35.6935 79.3323 35.2759 80.2554 35.1698 81.4357H43.0486ZM54.4366 88.563L51.4764 83.9326L48.63 88.563H46.4667L50.4972 82.3891L46.4667 76.1243H48.8122L51.7724 80.7321L54.596 76.1243H56.7593L52.7516 82.2756L56.782 88.563H54.4366ZM60.8927 78.4169C61.3026 77.7057 61.9096 77.1156 62.7144 76.6464C63.5341 76.1622 64.4828 75.92 65.5608 75.92C66.6688 75.92 67.6707 76.1849 68.5665 76.7145C69.4774 77.244 70.1908 77.9931 70.707 78.9616C71.223 79.9149 71.4812 81.0272 71.4812 82.2983C71.4812 83.5542 71.223 84.6741 70.707 85.6576C70.1908 86.6412 69.4774 87.4054 68.5665 87.9502C67.6707 88.495 66.6688 88.7673 65.5608 88.7673C64.498 88.7673 63.5569 88.5329 62.7371 88.0637C61.9324 87.5795 61.3176 86.9816 60.8927 86.2705V94.4646H58.8205V76.1243H60.8927V78.4169ZM69.3635 82.2983C69.3635 81.3602 69.1736 80.543 68.7942 79.8469C68.4147 79.1507 67.8984 78.6211 67.2458 78.258C66.6082 77.8948 65.9023 77.7132 65.1281 77.7132C64.3689 77.7132 63.663 77.9023 63.0104 78.2807C62.3728 78.6438 61.8566 79.1811 61.462 79.8923C61.0824 80.5884 60.8927 81.3978 60.8927 82.321C60.8927 83.2591 61.0824 84.084 61.462 84.7951C61.8566 85.4913 62.3728 86.0283 63.0104 86.4067C63.663 86.7699 64.3689 86.9515 65.1281 86.9515C65.9023 86.9515 66.6082 86.7699 67.2458 86.4067C67.8984 86.0283 68.4147 85.4913 68.7942 84.7951C69.1736 84.084 69.3635 83.2516 69.3635 82.2983ZM85.5943 81.867C85.5943 82.2604 85.5715 82.6767 85.526 83.1154H75.5522C75.6281 84.3411 76.0457 85.302 76.8047 85.9981C77.5789 86.6791 78.5125 87.0196 79.6055 87.0196C80.5011 87.0196 81.245 86.8153 81.8371 86.4067C82.4444 85.9829 82.8693 85.4232 83.1122 84.727H85.3438C85.0098 85.9225 84.3419 86.8986 83.34 87.6551C82.338 88.3967 81.0931 88.7673 79.6055 88.7673C78.4214 88.7673 77.3587 88.5024 76.4175 87.9729C75.4914 87.4433 74.7628 86.6943 74.2315 85.7257C73.7003 84.7422 73.4345 83.6073 73.4345 82.321C73.4345 81.0347 73.6925 79.9075 74.2088 78.9389C74.725 77.9704 75.4459 77.229 76.372 76.7145C77.3131 76.1849 78.3911 75.92 79.6055 75.92C80.7896 75.92 81.8371 76.1772 82.7479 76.6918C83.6588 77.2063 84.3571 77.9175 84.8428 78.8254C85.3438 79.7182 85.5943 80.7321 85.5943 81.867ZM83.4538 81.4357C83.4538 80.6488 83.2792 79.9756 82.9301 79.4156C82.581 78.8406 82.1028 78.4094 81.4955 78.1218C80.9035 77.8192 80.2431 77.6678 79.5144 77.6678C78.4669 77.6678 77.5714 78.0008 76.8274 78.6665C76.0988 79.3323 75.6814 80.2554 75.575 81.4357H83.4538ZM90.4017 78.1445C90.7661 77.4333 91.2821 76.8809 91.9502 76.4875C92.6333 76.0941 93.4606 75.8973 94.4322 75.8973V78.031H93.8857C91.5631 78.031 90.4017 79.2869 90.4017 81.7989V88.563H88.3296V76.1243H90.4017V78.1445ZM97.8943 74.1042C97.4997 74.1042 97.1656 73.968 96.8924 73.6956C96.6191 73.4232 96.4825 73.0902 96.4825 72.6969C96.4825 72.3035 96.6191 71.9705 96.8924 71.6981C97.1656 71.4257 97.4997 71.2896 97.8943 71.2896C98.2739 71.2896 98.5927 71.4257 98.8507 71.6981C99.124 71.9705 99.2606 72.3035 99.2606 72.6969C99.2606 73.0902 99.124 73.4232 98.8507 73.6956C98.5927 73.968 98.2739 74.1042 97.8943 74.1042ZM98.8962 76.1243V88.563H96.8241V76.1243H98.8962ZM113.814 81.867C113.814 82.2604 113.791 82.6767 113.745 83.1154H103.772C103.847 84.3411 104.265 85.302 105.024 85.9981C105.798 86.6791 106.732 87.0196 107.825 87.0196C108.72 87.0196 109.464 86.8153 110.056 86.4067C110.663 85.9829 111.089 85.4232 111.332 84.727H113.563C113.229 85.9225 112.561 86.8986 111.559 87.6551C110.557 88.3967 109.312 88.7673 107.825 88.7673C106.641 88.7673 105.578 88.5024 104.637 87.9729C103.711 87.4433 102.982 86.6943 102.451 85.7257C101.919 84.7422 101.654 83.6073 101.654 82.321C101.654 81.0347 101.912 79.9075 102.428 78.9389C102.944 77.9704 103.665 77.229 104.591 76.7145C105.532 76.1849 106.61 75.92 107.825 75.92C109.009 75.92 110.056 76.1772 110.967 76.6918C111.878 77.2063 112.576 77.9175 113.062 78.8254C113.563 79.7182 113.814 80.7321 113.814 81.867ZM111.673 81.4357C111.673 80.6488 111.498 79.9756 111.149 79.4156C110.8 78.8406 110.322 78.4094 109.715 78.1218C109.123 77.8192 108.462 77.6678 107.734 77.6678C106.686 77.6678 105.79 78.0008 105.047 78.6665C104.318 79.3323 103.9 80.2554 103.794 81.4357H111.673ZM122.629 75.8973C124.147 75.8973 125.376 76.3588 126.317 77.2819C127.259 78.1899 127.729 79.5064 127.729 81.2315V88.563H125.68V81.5265C125.68 80.2856 125.369 79.34 124.746 78.6892C124.124 78.0235 123.274 77.6905 122.196 77.6905C121.103 77.6905 120.23 78.031 119.577 78.7119C118.94 79.3929 118.621 80.3841 118.621 81.6854V88.563H116.549V76.1243H118.621V77.8948C119.031 77.2592 119.585 76.7674 120.283 76.4194C120.997 76.0714 121.778 75.8973 122.629 75.8973ZM130.34 82.321C130.34 81.0347 130.598 79.9149 131.114 78.9616C131.63 77.9931 132.344 77.244 133.255 76.7145C134.181 76.1849 135.236 75.92 136.42 75.92C137.953 75.92 139.213 76.2907 140.2 77.0323C141.202 77.7738 141.862 78.8027 142.181 80.1192H139.949C139.737 79.3627 139.319 78.7648 138.697 78.3261C138.09 77.8873 137.331 77.6678 136.42 77.6678C135.236 77.6678 134.279 78.0764 133.551 78.8935C132.822 79.6955 132.458 80.8381 132.458 82.321C132.458 83.8191 132.822 84.9767 133.551 85.7938C134.279 86.611 135.236 87.0196 136.42 87.0196C137.331 87.0196 138.09 86.8078 138.697 86.384C139.304 85.9602 139.722 85.3551 139.949 84.5681H142.181C141.847 85.8392 141.179 86.8607 140.177 87.6324C139.175 88.3889 137.923 88.7673 136.42 88.7673C135.236 88.7673 134.181 88.5024 133.255 87.9729C132.344 87.4433 131.63 86.6943 131.114 85.7257C130.598 84.7572 130.34 83.6223 130.34 82.321ZM156.331 81.867C156.331 82.2604 156.309 82.6767 156.263 83.1154H146.289C146.365 84.3411 146.783 85.302 147.542 85.9981C148.316 86.6791 149.249 87.0196 150.343 87.0196C151.238 87.0196 151.982 86.8153 152.574 86.4067C153.181 85.9829 153.607 85.4232 153.849 84.727H156.081C155.747 85.9225 155.079 86.8986 154.077 87.6551C153.075 88.3967 151.83 88.7673 150.343 88.7673C149.158 88.7673 148.096 88.5024 147.155 87.9729C146.229 87.4433 145.5 86.6943 144.969 85.7257C144.437 84.7422 144.172 83.6073 144.172 82.321C144.172 81.0347 144.43 79.9075 144.946 78.9389C145.462 77.9704 146.183 77.229 147.109 76.7145C148.05 76.1849 149.128 75.92 150.343 75.92C151.527 75.92 152.574 76.1772 153.485 76.6918C154.396 77.2063 155.094 77.9175 155.58 78.8254C156.081 79.7182 156.331 80.7321 156.331 81.867ZM154.191 81.4357C154.191 80.6488 154.016 79.9756 153.667 79.4156C153.318 78.8406 152.84 78.4094 152.233 78.1218C151.64 77.8192 150.98 77.6678 150.251 77.6678C149.204 77.6678 148.308 78.0008 147.564 78.6665C146.836 79.3323 146.418 80.2554 146.312 81.4357H154.191Z" fill="white"/>
</svg>
