<svg width="192" height="160" viewBox="0 0 192 160" fill="none" xmlns="http://www.w3.org/2000/svg">
<path d="M96.1286 17.0718C122.737 17.0718 145.206 33.3691 154.666 56.7777L146.98 59.1482C145.501 59.7409 144.91 61.815 146.093 63.0002L163.832 79.2975C165.014 80.4827 167.084 79.8902 167.379 78.1123L172.701 54.7036C172.997 52.9257 171.518 51.7405 170.04 52.0368L163.24 54.1109C159.988 45.8141 155.258 38.11 148.754 31.2948C134.267 15.8865 113.867 7.58975 92.8766 8.4787C75.1378 9.36763 58.2861 16.7755 45.5732 29.517C37.2953 37.8136 31.0867 47.8884 27.8346 58.852C26.9477 61.5189 29.0172 64.4818 31.9736 64.4818C33.7475 64.4818 35.5214 63.2966 36.1127 61.5189C43.7995 35.7395 67.7468 17.0718 96.1286 17.0718Z" fill="#941C80"/>
<path d="M165.32 81.6682C164.137 81.6682 163.25 81.3718 162.363 80.483L144.625 64.1857C143.442 63.0005 142.851 61.5189 143.442 60.0373C143.738 58.5557 144.92 57.3705 146.399 56.7777L152.016 55C142.259 32.7764 120.677 18.8498 96.4343 18.8498C69.5306 18.8498 46.1747 36.0359 38.1923 61.8152C37.3053 64.4821 34.9401 66.2598 31.9837 66.2598C29.9142 66.2598 28.1403 65.3709 26.6621 63.593C25.4795 61.8152 25.1838 59.7409 25.7751 57.9632C29.3229 46.7032 35.5315 36.0359 44.1053 27.7391C57.1136 14.7014 74.261 6.99722 92.591 6.10828C114.469 4.92303 135.46 13.5161 150.242 29.517C156.155 36.0359 160.885 43.1475 164.433 51.148L169.459 49.6664C170.937 49.0736 172.415 49.6664 173.598 50.5552C174.78 51.7405 175.372 53.222 174.78 54.7036L169.459 78.1123C169.163 79.5939 167.98 80.7793 166.502 81.3718C166.207 81.6682 165.615 81.6682 165.32 81.6682ZM96.1386 14.7014C122.747 14.7014 146.694 30.7023 156.746 55.5925L157.042 56.4816L156.155 58.2593L147.581 60.9261L165.32 77.2234L170.641 53.8148L162.068 56.4816L160.885 55C157.633 46.7032 152.903 39.2955 146.99 32.7764C133.095 17.6645 112.991 9.66405 92.591 10.553C75.4436 11.4419 59.183 18.5534 46.7661 30.9986C38.7837 38.9991 32.8706 48.7773 29.6185 59.4445C29.3229 60.0373 29.6185 60.9261 29.9142 61.2225C30.8011 62.7041 33.1663 62.1114 33.7576 60.63C42.3313 33.3691 67.4611 14.7014 96.1386 14.7014Z" fill="white"/>
<path d="M96.1227 143.301C68.6277 143.301 45.5673 125.819 36.698 101.225L44.0891 99.7432C45.863 99.4469 46.4544 97.3728 45.2716 96.1873L29.3069 78.4087C28.1243 77.2235 26.0548 77.5196 25.4635 79.2976L18.0724 102.114C17.4811 103.595 18.9593 105.373 20.7332 105.077L27.8287 103.595C31.3764 113.966 37.2893 123.448 44.9762 131.449C58.5757 145.079 76.6102 152.487 95.827 152.487C115.044 152.487 133.078 145.079 146.678 131.449C155.843 122.263 162.052 111.299 165.304 99.4469C165.895 96.7801 164.121 94.1132 161.165 94.1132C159.095 94.1132 157.617 95.2985 157.026 97.3728C149.93 123.448 125.096 143.301 96.1227 143.301Z" fill="#941C80"/>
<path d="M96.1199 154.265C76.3117 154.265 57.9818 146.561 43.7906 132.634C36.1039 124.93 30.191 116.041 26.6432 105.966L21.3216 106.855C19.8434 107.151 18.3652 106.558 17.1826 105.669C16 104.484 15.7044 103.003 16.2956 101.521L23.6868 78.7051C24.2781 77.2235 25.4607 76.0383 26.9389 75.7419C28.4171 75.4455 29.8953 76.0383 31.0779 76.9271L47.0428 94.706C48.2254 95.8912 48.5211 97.3728 47.9297 98.8544C47.3383 100.336 46.1558 101.521 44.6775 101.817L39.6516 103.003C48.8166 126.115 71.2856 141.227 96.1199 141.227C123.615 141.227 147.858 122.559 154.953 95.8912C155.84 92.928 158.205 91.1501 161.162 91.1501C163.231 91.1501 165.005 92.0392 166.188 93.8169C167.37 95.2985 167.962 97.3728 167.37 99.4469C164.118 111.892 157.319 123.448 148.154 132.634C134.258 146.561 115.928 154.265 96.1199 154.265ZM29.304 100.632L30.191 102.114C33.7387 112.485 39.3559 121.67 47.0428 129.078C60.0512 142.116 77.79 149.524 96.1199 149.524C114.746 149.524 132.189 142.412 145.197 129.078C153.771 120.485 159.979 109.521 163.231 97.9653C163.527 97.3728 163.231 96.4837 162.936 96.1876C162.049 95.0021 159.684 95.2985 159.092 97.0764C151.406 125.522 125.389 145.672 96.1199 145.672C68.6248 145.672 44.0863 128.189 34.6257 102.114L34.33 101.225L35.217 99.4469L43.4949 97.6689L27.5302 79.8903L20.139 102.706L29.304 100.632Z" fill="white"/>
<path fill-rule="evenodd" clip-rule="evenodd" d="M121.856 116.337L118.013 113.078C114.169 109.522 105.004 102.114 108.847 95.5952C111.508 91.1507 115.943 91.1507 118.308 93.2248C120.378 95.2991 120.378 97.0768 121.856 97.0768C124.221 97.3732 124.517 90.558 131.021 92.0395C134.273 92.6323 136.934 97.0768 135.751 101.225C134.273 106.559 127.769 111.3 124.221 114.856C123.334 115.152 122.151 116.041 121.856 116.337ZM105.004 98.5584C105.004 102.707 107.369 106.855 110.03 109.522C111.508 110.707 112.395 111.892 113.874 113.374L116.83 116.041L117.421 116.634V117.226C102.639 117.226 88.1524 117.226 73.3701 117.226C66.5702 117.226 57.4052 119.004 57.1095 111.596C56.8141 103.596 56.5184 100.633 64.2051 96.4843C67.4571 94.7064 71.005 93.5211 74.2569 91.7432L78.9874 89.0764C82.5351 86.4095 80.4656 87.8911 81.3525 84.0391C82.2394 84.0391 82.2394 84.3355 83.1265 84.6318C85.1959 85.817 87.561 86.4095 90.2218 86.4095C95.8391 86.4095 97.9087 84.0391 98.7956 84.0391C99.6825 84.0391 98.7956 86.4095 99.6825 87.2986C99.9782 87.5948 101.456 88.78 102.048 89.0764C103.822 90.2616 105.595 90.8543 107.074 92.0395C107.074 93.2248 105.004 95.0027 105.004 98.5584ZM99.9782 45.5184C98.7956 44.3332 98.2042 44.9257 97.3174 45.8148C92.2914 51.7409 87.2655 55.593 77.8048 54.7041C76.6223 54.7041 75.4395 54.4077 74.2569 54.1114C72.4832 53.5189 72.4832 53.8152 72.4832 51.7409C73.9615 34.5548 96.726 29.8139 105.004 44.0368C107.369 47.8889 107.369 49.9632 107.369 54.1114C107.369 55.8893 107.961 55.5929 109.439 55.8893C112.395 56.7782 112.395 62.4082 111.213 65.075C109.439 68.927 107.961 68.0382 106.187 68.3345C104.413 68.6309 104.413 72.1866 102.048 76.335C95.8391 86.4095 84.0133 85.5207 78.6917 77.5202C75.4395 72.483 76.0309 71.8902 74.8483 69.2234C74.2569 67.7418 73.0744 68.6309 71.5961 68.3345C68.6399 67.4455 66.2745 60.0377 69.231 56.7782C70.1181 55.5929 71.005 56.1857 72.1875 56.482C82.2394 60.3341 92.2914 56.1857 98.4999 48.4816C99.6825 47.5925 100.57 47.2961 99.9782 45.5184ZM73.0744 70.705C75.144 77.2239 78.6917 80.187 78.6917 81.6686C78.6917 82.2611 78.6917 84.3354 78.6917 84.928C78.6917 86.1132 78.1003 86.1132 77.2134 86.7059C70.7093 91.1507 62.1355 92.9284 57.7009 97.3732C56.5184 98.5584 55.927 99.1511 55.0401 101.225C54.4487 103.3 54.4487 105.374 54.4487 107.744C54.4487 112.781 54.4487 115.448 57.4052 118.115C60.3617 120.486 64.2051 119.893 68.6399 119.893C75.144 119.893 120.969 120.189 121.856 119.597C122.743 119.3 131.021 111.3 132.499 110.115C136.047 106.855 139.299 100.929 137.525 95.8916C136.343 92.6323 134.273 90.2616 130.725 89.3727C124.812 87.8911 122.151 92.6323 120.969 92.9284C119.786 91.4468 119.786 91.1507 117.717 90.2616C116.83 89.0764 115.056 89.0764 113.282 89.0764C110.917 89.0764 110.917 90.558 108.552 89.3727C107.369 88.78 105.891 88.1875 104.413 87.2986C102.639 86.1132 102.048 86.4095 102.048 83.4464C102.048 80.187 102.048 81.3723 103.822 79.0018C105.3 76.9275 106.778 73.6682 107.961 70.705C109.439 70.1123 109.735 70.4086 111.213 69.5198C114.169 67.7418 115.352 64.1861 115.352 60.6304C115.352 57.6673 114.76 55.8893 112.987 54.1114C112.1 53.5189 110.917 53.5189 110.621 52.3336C110.03 48.4816 110.03 45.8148 107.369 42.2589C96.1348 25.3691 71.3007 32.4807 70.1181 52.0373C70.1181 54.1114 69.5267 53.2225 68.0485 54.4077C63.6137 57.9634 65.092 70.4086 73.0744 70.705Z" fill="#941B80"/>
<path fill-rule="evenodd" clip-rule="evenodd" d="M114.463 94.4102C111.802 94.7064 110.028 96.7807 110.62 100.04C110.916 101.818 112.985 105.67 115.055 105.078C118.011 104.188 113.281 101.818 113.281 99.1512C113.281 97.0771 114.759 97.3732 115.646 96.7807C116.237 95.8918 116.237 94.1139 114.463 94.4102Z" fill="#941B80"/>
</svg>
