<svg width="192" height="161" viewBox="0 0 192 161" fill="none" xmlns="http://www.w3.org/2000/svg">
<path d="M149.809 64.0994H135.892C135.003 64.0994 134.411 63.5053 134.411 62.6139V48.6508C134.411 47.7596 135.003 47.1653 135.892 47.1653H149.809C150.697 47.1653 151.289 47.7596 151.289 48.6508V62.6139C151.289 63.5053 150.697 64.0994 149.809 64.0994ZM148.032 50.1362H137.372V60.8315H148.032V50.1362Z" fill="#941C80"/>
<path d="M121.1 64.0994H107.183C106.294 64.0994 105.702 63.5053 105.702 62.6139V48.6508C105.702 47.7596 106.294 47.1653 107.183 47.1653H121.1C121.988 47.1653 122.58 47.7596 122.58 48.6508V62.6139C122.58 63.5053 121.988 64.0994 121.1 64.0994ZM119.323 50.1362H108.663V60.8315H119.323V50.1362Z" fill="#941C80"/>
<path d="M149.809 41.8176H135.892C135.003 41.8176 134.411 41.2236 134.411 40.3322V26.369C134.411 25.4777 135.003 24.8835 135.892 24.8835H149.809C150.697 24.8835 151.289 25.4777 151.289 26.369V40.0353C151.289 40.9264 150.697 41.8176 149.809 41.8176ZM148.032 27.8545H137.372V38.5498H148.032V27.8545Z" fill="#941C80"/>
<path d="M121.1 41.8176H107.183C106.294 41.8176 105.702 41.2236 105.702 40.3322V26.369C105.702 25.4777 106.294 24.8835 107.183 24.8835H121.1C121.988 24.8835 122.58 25.4777 122.58 26.369V40.0353C122.58 40.9264 121.988 41.8176 121.1 41.8176ZM119.323 27.8545H108.663V38.5498H119.323V27.8545Z" fill="#941C80"/>
<path d="M149.809 86.6782H135.892C135.003 86.6782 134.411 86.0842 134.411 85.1927V71.2296C134.411 70.3384 135.003 69.7441 135.892 69.7441H149.809C150.697 69.7441 151.289 70.3384 151.289 71.2296V85.1927C151.289 85.787 150.697 86.6782 149.809 86.6782ZM148.032 72.7151H137.372V83.4103H148.032V72.7151Z" fill="#941C80"/>
<path d="M121.1 86.6782H107.183C106.294 86.6782 105.702 86.0842 105.702 85.1927V71.2296C105.702 70.3384 106.294 69.7441 107.183 69.7441H121.1C121.988 69.7441 122.58 70.3384 122.58 71.2296V85.1927C122.58 85.787 121.988 86.6782 121.1 86.6782ZM119.323 72.7151H108.663V83.4103H119.323V72.7151Z" fill="#941C80"/>
<path d="M135.595 108.96C134.707 108.96 134.115 108.366 134.115 107.475V93.5114C134.115 92.6202 134.707 92.0259 135.595 92.0259H149.809C150.697 92.0259 151.289 92.6202 151.289 93.5114V107.475C151.289 108.366 150.697 108.96 149.809 108.96H135.595ZM148.032 94.9968H137.372V105.692H148.032V94.9968Z" fill="#941C80"/>
<path d="M121.1 108.96H107.183C106.294 108.96 105.702 108.366 105.702 107.475V93.5114C105.702 92.6202 106.294 92.0259 107.183 92.0259H121.1C121.988 92.0259 122.58 92.6202 122.58 93.5114V107.475C122.58 108.366 121.988 108.96 121.1 108.96ZM119.323 94.9968H108.663V105.692H119.323V94.9968Z" fill="#941C80"/>
<path d="M30.7806 36.47H94.1487V14.4855C94.1487 13.5942 94.7408 13 95.6292 13H160.774C161.662 13 162.255 13.5942 162.255 14.4855V148.473C162.255 149.364 161.662 149.959 160.774 149.959H95.6292H30.4845C29.5961 149.959 29.0039 149.364 29.0039 148.473V37.9555C29.0039 37.0643 29.8923 36.47 30.7806 36.47ZM159.293 15.9709H97.4058V37.9555V146.394H116.357V129.757C116.357 126.488 117.541 123.518 119.91 121.438C122.279 119.061 125.241 117.873 128.201 117.873C134.716 117.873 140.046 123.221 140.046 129.757V146.394H158.997V15.9709H159.293ZM119.614 146.691H137.085V130.054C137.085 125.3 133.235 121.438 128.498 121.438C126.129 121.438 124.056 122.329 122.279 124.112C120.503 125.894 119.614 127.974 119.614 130.351V146.691ZM54.4697 146.691H71.9401V130.054C71.9401 125.3 68.0907 121.438 63.353 121.438C60.9841 121.438 58.9112 122.329 57.1347 124.112C55.3579 125.894 54.4697 127.974 54.4697 130.351V146.691ZM32.2612 146.691H51.2123V130.054C51.2123 126.786 52.3968 123.815 54.7656 121.735C57.1347 119.358 60.0956 118.17 63.0568 118.17C69.5712 118.17 74.9013 123.518 74.9013 130.054V146.691H93.8525V39.7381H31.965V146.691H32.2612Z" fill="#941C80"/>
<path d="M84.6638 65.5851H70.7467C69.8582 65.5851 69.2661 64.991 69.2661 64.0996V50.1365C69.2661 49.2451 69.8582 48.651 70.7467 48.651H84.6638C85.5521 48.651 86.1444 49.2451 86.1444 50.1365V63.8027C86.1444 64.6939 85.5521 65.5851 84.6638 65.5851ZM82.8873 51.3248H72.2273V62.0201H82.8873V51.3248Z" fill="#941C80"/>
<path d="M55.955 65.5851H42.0377C41.1494 65.5851 40.5571 64.991 40.5571 64.0996V50.1365C40.5571 49.2451 41.1494 48.651 42.0377 48.651H55.955C56.8433 48.651 57.4356 49.2451 57.4356 50.1365V63.8027C57.4356 64.6939 56.8433 65.5851 55.955 65.5851ZM54.1783 51.3248H43.5183V62.0201H54.1783V51.3248Z" fill="#941C80"/>
<path d="M84.6638 87.8667H70.7467C69.8582 87.8667 69.2661 87.2726 69.2661 86.3812V72.4181C69.2661 71.5269 69.8582 70.9326 70.7467 70.9326H84.6638C85.5521 70.9326 86.1444 71.5269 86.1444 72.4181V86.3812C86.1444 87.2726 85.5521 87.8667 84.6638 87.8667ZM82.8873 73.9036H72.2273V84.5988H82.8873V73.9036Z" fill="#941C80"/>
<path d="M55.955 87.8667H42.0377C41.1494 87.8667 40.5571 87.2726 40.5571 86.3812V72.4181C40.5571 71.5269 41.1494 70.9326 42.0377 70.9326H55.955C56.8433 70.9326 57.4356 71.5269 57.4356 72.4181V86.3812C57.4356 87.2726 56.8433 87.8667 55.955 87.8667ZM54.1783 73.9036H43.5183V84.5988H54.1783V73.9036Z" fill="#941C80"/>
<path d="M84.6638 110.446H70.7467C69.8582 110.446 69.2661 109.851 69.2661 108.96V94.9969C69.2661 94.1058 69.8582 93.5115 70.7467 93.5115H84.6638C85.5521 93.5115 86.1444 94.1058 86.1444 94.9969V108.96C86.1444 109.554 85.5521 110.446 84.6638 110.446ZM82.8873 96.1853H72.2273V106.881H82.8873V96.1853Z" fill="#941C80"/>
<path d="M55.955 110.446H42.0377C41.1494 110.446 40.5571 109.851 40.5571 108.96V94.9969C40.5571 94.1058 41.1494 93.5115 42.0377 93.5115H55.955C56.8433 93.5115 57.4356 94.1058 57.4356 94.9969V108.96C57.4356 109.554 56.8433 110.446 55.955 110.446ZM54.1783 96.1853H43.5183V106.881H54.1783V96.1853Z" fill="#941C80"/>
</svg>
