<svg width="60" height="60" viewBox="0 0 60 60" fill="none" xmlns="http://www.w3.org/2000/svg">
<rect width="60" height="60" rx="6" fill="white"/>
<path d="M10.5072 19.3597H19.0797V45H10.5072V19.3597ZM14.8509 7C11.9169 7 10 8.91446 10 11.4273C10 13.8884 11.8608 15.8585 14.7387 15.8585H14.7933C17.7834 15.8585 19.6455 13.8883 19.6455 11.4273C19.5894 8.91446 17.7835 7 14.8509 7ZM40.1275 18.7574C35.5771 18.7574 33.5386 21.245 32.4013 22.9896V19.3597H23.8263C23.9398 21.7651 23.8263 45 23.8263 45H32.4013V30.6807C32.4013 29.9137 32.4574 29.1497 32.683 28.6003C33.3039 27.0693 34.7148 25.4838 37.0813 25.4838C40.1863 25.4838 41.4263 27.8362 41.4263 31.2815V44.9999H50V30.2973C50 22.4218 45.7712 18.7574 40.1275 18.7574Z" fill="#263B5E"/>
</svg>
