<svg width="60" height="60" viewBox="0 0 60 60" fill="none" xmlns="http://www.w3.org/2000/svg">
<rect width="60" height="60" rx="6" fill="white"/>
<g clip-path="url(#clip0_358_4640)">
<path d="M30 10C35.434 10 36.112 10.02 38.244 10.12C40.374 10.22 41.824 10.554 43.1 11.05C44.42 11.558 45.532 12.246 46.644 13.356C47.661 14.3558 48.4479 15.5652 48.95 16.9C49.444 18.174 49.78 19.626 49.88 21.756C49.974 23.888 50 24.566 50 30C50 35.434 49.98 36.112 49.88 38.244C49.78 40.374 49.444 41.824 48.95 43.1C48.4494 44.4356 47.6622 45.6452 46.644 46.644C45.6439 47.6606 44.4346 48.4475 43.1 48.95C41.826 49.444 40.374 49.78 38.244 49.88C36.112 49.974 35.434 50 30 50C24.566 50 23.888 49.98 21.756 49.88C19.626 49.78 18.176 49.444 16.9 48.95C15.5647 48.4489 14.3551 47.6619 13.356 46.644C12.3388 45.6444 11.5519 44.4349 11.05 43.1C10.554 41.826 10.22 40.374 10.12 38.244C10.026 36.112 10 35.434 10 30C10 24.566 10.02 23.888 10.12 21.756C10.22 19.624 10.554 18.176 11.05 16.9C11.5505 15.5644 12.3376 14.3546 13.356 13.356C14.3553 12.3385 15.5649 11.5515 16.9 11.05C18.176 10.554 19.624 10.22 21.756 10.12C23.888 10.026 24.566 10 30 10ZM30 20C27.3478 20 24.8043 21.0536 22.9289 22.9289C21.0536 24.8043 20 27.3478 20 30C20 32.6522 21.0536 35.1957 22.9289 37.0711C24.8043 38.9464 27.3478 40 30 40C32.6522 40 35.1957 38.9464 37.0711 37.0711C38.9464 35.1957 40 32.6522 40 30C40 27.3478 38.9464 24.8043 37.0711 22.9289C35.1957 21.0536 32.6522 20 30 20ZM43 19.5C43 18.837 42.7366 18.2011 42.2678 17.7322C41.7989 17.2634 41.163 17 40.5 17C39.837 17 39.2011 17.2634 38.7322 17.7322C38.2634 18.2011 38 18.837 38 19.5C38 20.163 38.2634 20.7989 38.7322 21.2678C39.2011 21.7366 39.837 22 40.5 22C41.163 22 41.7989 21.7366 42.2678 21.2678C42.7366 20.7989 43 20.163 43 19.5ZM30 24C31.5913 24 33.1174 24.6321 34.2426 25.7574C35.3679 26.8826 36 28.4087 36 30C36 31.5913 35.3679 33.1174 34.2426 34.2426C33.1174 35.3679 31.5913 36 30 36C28.4087 36 26.8826 35.3679 25.7574 34.2426C24.6321 33.1174 24 31.5913 24 30C24 28.4087 24.6321 26.8826 25.7574 25.7574C26.8826 24.6321 28.4087 24 30 24Z" fill="#263B5E"/>
</g>
<defs>
<clipPath id="clip0_358_4640">
<rect width="44" height="44" fill="white" transform="translate(8 8)"/>
</clipPath>
</defs>
</svg>
