<svg width="146" height="127" viewBox="0 0 146 127" fill="none" xmlns="http://www.w3.org/2000/svg">
<path d="M73.2401 0L0 42.3333V84.9086L73.4803 127L146 84.9086V42.5752L73.2401 0Z" fill="#93328E"/>
<path d="M124.647 71.4472V48.8863C126.58 48.8863 130.597 48.9486 130.597 48.9486V50.2976C130.597 50.2976 130.623 60.5685 130.626 65.704C130.626 68.4703 130.641 71.2338 130.621 74.0001C130.609 75.8681 130.209 77.6649 128.243 78.338C126.186 79.0407 123.874 79.2868 122.326 77.4366C120.538 75.2988 119.096 72.8675 117.577 70.5133C114.667 66.0064 111.814 61.461 108.927 56.9393C108.735 56.6369 108.439 56.4027 107.891 55.8156C107.814 56.7614 107.734 57.3099 107.734 57.8585C107.725 64.0791 107.755 78.4358 107.755 78.4358H105.952H102.296C102.296 78.4358 102.296 60.3966 102.296 53.1886C102.296 50.4044 102.906 49.3162 104.786 48.7321C107.48 47.896 109.86 48.5601 111.207 50.6446C113.717 54.5317 116.171 58.4545 118.649 62.3653C120.36 65.0665 122.065 67.7736 123.785 70.4717C123.933 70.703 124.152 70.8898 124.655 71.4532L124.647 71.4472Z" fill="white"/>
<path d="M97.6984 71.0695C97.6984 72.8785 97.7709 74.4796 97.6751 76.072C97.5968 77.3833 96.5836 78.3317 95.2655 78.3376C89.8018 78.3698 84.3352 78.4166 78.8744 78.3171C76.3196 78.2703 74.4471 76.5432 73.8984 74.023C73.6632 72.937 73.5152 71.8101 73.5036 70.7007C73.4629 65.827 73.4891 60.9504 73.4833 56.0738C73.4833 52.1544 75.8116 49.1804 80.0937 49.356C84.1494 49.5229 88.2167 49.3794 92.2782 49.3941C96.0813 49.4087 98.3167 51.5924 98.4329 55.4064C98.4648 56.428 98.4735 57.4613 98.3632 58.474C98.0903 61.0119 96.7432 62.7916 94.4004 63.7605C89.6828 65.7099 84.9478 67.6096 80.2505 69.6059C79.6902 69.846 78.9412 70.5543 78.9441 71.0402C78.947 72.1467 79.3302 73.3146 80.6685 73.5868C81.4175 73.7391 82.2043 73.7449 82.9736 73.7508C85.8274 73.7683 88.6812 73.7332 91.5321 73.7713C93.3553 73.7956 93.1346 71.0578 93.1346 71.0578H94.1681C94.1681 71.0578 96.3803 71.0695 97.7013 71.0695H97.6984ZM79.4434 64.8318C83.7778 62.7682 87.7609 60.9592 91.654 58.9687C92.9692 58.2984 93.1027 56.8671 92.7543 55.4825C92.4263 54.1799 91.4624 53.7526 90.2402 53.7467C88.0628 53.7379 85.8884 53.7467 83.711 53.7467C79.5479 53.7467 79.4405 53.855 79.4405 58.0964C79.4405 60.2215 79.4405 62.3496 79.4405 64.8347L79.4434 64.8318Z" fill="white"/>
<path d="M70.1184 78.2852H64.6369V65.6637H50.086C50.086 68.8213 50.086 75.0239 50.086 75.0239V78.3771C50.086 78.3771 45.4871 78.3771 44.6645 78.3771V48.8914H50.0603V60.9377C53.9308 60.9377 64.5997 60.9377 64.5997 60.9377V57.4362C64.5997 57.4362 64.5969 52.6954 64.6026 50.3235C64.6026 49.8432 64.6483 49.3658 64.674 48.8647H70.1127V78.2852H70.1184Z" fill="white"/>
<path d="M15.5879 71.0505L18.2682 71.0387H20.2065C20.2065 71.0387 19.901 73.7054 21.3095 73.6965C24.895 73.7674 28.4863 73.7644 32.0748 73.7054C33.332 73.6847 34.0858 72.9641 34.307 71.6264C34.6038 69.8397 34.3099 68.6349 32.8838 68.0383C30.6603 67.111 28.3379 66.4171 26.0562 65.6345C23.7746 64.8519 21.4696 64.1284 19.2054 63.2986C17.4534 62.6577 16.3358 61.3347 15.8469 59.5156C15.195 57.0881 15.1484 54.6105 16.0884 52.2864C17.0052 50.0213 18.9929 48.9789 21.3095 48.9316C26.2541 48.8283 31.2017 48.8666 36.1492 48.9021C37.7033 48.9139 38.6841 49.9032 38.7743 51.4713C38.85 52.7943 38.8092 55.4551 38.8092 55.4551L34.2982 55.5112C34.2982 55.5112 34.4526 53.6802 32.2872 53.6802C29.6214 53.76 26.9526 53.695 24.2868 53.7068C22.2263 53.7157 21.2891 54.3033 21.036 55.7002C20.6984 57.5636 21.5336 58.9722 23.5039 59.6278C26.6179 60.6644 29.7582 61.6271 32.8867 62.6252C33.623 62.8615 34.3419 63.1509 35.0869 63.3517C38.8791 64.3765 40.2498 68.1771 39.7696 71.8833C39.627 72.9907 39.4437 74.1306 39.0333 75.1554C38.2126 77.2078 36.5916 78.3182 34.4059 78.3388C29.0248 78.389 23.6407 78.3831 18.2566 78.3595C16.7811 78.3536 15.6752 77.3554 15.6024 75.9645C15.518 74.4053 15.582 72.8372 15.582 71.0535L15.5879 71.0505Z" fill="white"/>
</svg>
