<svg width="50" height="50" viewBox="0 0 50 50" fill="none" xmlns="http://www.w3.org/2000/svg">
<rect width="50" height="50" rx="25" fill="white"/>
<path d="M39.1892 47.9729V45.6358C39.1892 42.3636 39.1892 40.7276 38.5422 39.4778C37.9731 38.3784 37.0649 37.4846 35.9479 36.9244C34.6781 36.2876 33.0158 36.2876 29.6911 36.2876H20.9846C17.6599 36.2876 15.9976 36.2876 14.7278 36.9244C13.6108 37.4846 12.7027 38.3784 12.1335 39.4778C11.4865 40.7276 11.4865 42.3636 11.4865 45.6358V47.9729M32.2635 21.6811C32.2635 25.4457 29.1628 28.4975 25.3379 28.4975C21.5129 28.4975 18.4122 25.4457 18.4122 21.6811C18.4122 17.9165 21.5129 14.8647 25.3379 14.8647C29.1628 14.8647 32.2635 17.9165 32.2635 21.6811Z" stroke="#263B5E" stroke-width="4" stroke-linecap="round" stroke-linejoin="round"/>
</svg>
