<svg width="112" height="16" viewBox="0 0 112 16" fill="none" xmlns="http://www.w3.org/2000/svg">
<path d="M7.61566 1.67518C7.99094 0.964306 9.00906 0.964308 9.38434 1.67518L10.769 4.29808C10.9191 4.58245 11.1968 4.77729 11.5153 4.82166L14.4896 5.23605C15.3259 5.35257 15.6502 6.38909 15.0296 6.96156L12.9613 8.86922C12.7102 9.10081 12.5947 9.44456 12.6549 9.78079L13.1472 12.5259C13.2919 13.3328 12.4574 13.9615 11.7217 13.5998L8.94118 12.2329C8.66296 12.0961 8.33704 12.0961 8.05882 12.2329L5.27829 13.5998C4.54256 13.9615 3.70812 13.3328 3.85282 12.5259L4.34505 9.78079C4.40534 9.44456 4.28983 9.10081 4.03874 8.86922L1.97045 6.96156C1.34976 6.38909 1.67414 5.35257 2.51044 5.23605L5.48467 4.82166C5.80317 4.77729 6.08089 4.58245 6.23102 4.29808L7.61566 1.67518Z" fill="#3D57F4"/>
<path d="M24.6157 1.67518C24.9909 0.964306 26.0091 0.964308 26.3843 1.67518L27.769 4.29808C27.9191 4.58245 28.1968 4.77729 28.5153 4.82166L31.4896 5.23605C32.3259 5.35257 32.6502 6.38909 32.0296 6.96156L29.9613 8.86922C29.7102 9.10081 29.5947 9.44456 29.6549 9.78079L30.1472 12.5259C30.2919 13.3328 29.4574 13.9615 28.7217 13.5998L25.9412 12.2329C25.663 12.0961 25.337 12.0961 25.0588 12.2329L22.2783 13.5998C21.5426 13.9615 20.7081 13.3328 20.8528 12.5259L21.3451 9.78079C21.4053 9.44456 21.2898 9.10081 21.0387 8.86922L18.9704 6.96156C18.3498 6.38909 18.6741 5.35257 19.5104 5.23605L22.4847 4.82166C22.8032 4.77729 23.0809 4.58245 23.231 4.29808L24.6157 1.67518Z" fill="#3D57F4"/>
<path d="M41.1044 1.80245C41.4721 1.06239 42.5279 1.06239 42.8956 1.80245L44.1281 4.28322C44.2737 4.57628 44.5535 4.77956 44.8772 4.82748L47.6175 5.23313C48.4349 5.35414 48.7612 6.35818 48.171 6.93657L46.1925 8.87542C45.9588 9.10447 45.8519 9.43338 45.9064 9.75606L46.3673 12.4875C46.5049 13.3024 45.6508 13.9229 44.9183 13.5403L42.463 12.2578C42.1729 12.1063 41.8271 12.1063 41.537 12.2578L39.0817 13.5403C38.3492 13.9229 37.4951 13.3024 37.6327 12.4875L38.0936 9.75606C38.1481 9.43338 38.0412 9.10447 37.8075 8.87542L35.829 6.93657C35.2388 6.35818 35.5651 5.35414 36.3825 5.23313L39.1228 4.82748C39.4465 4.77956 39.7263 4.57628 39.8719 4.28322L41.1044 1.80245Z" fill="#3D57F4"/>
<path d="M57.6157 1.67518C57.9909 0.964306 59.0091 0.964308 59.3843 1.67518L60.769 4.29808C60.9191 4.58245 61.1968 4.77729 61.5153 4.82166L64.4896 5.23605C65.3259 5.35257 65.6502 6.38909 65.0296 6.96156L62.9613 8.86922C62.7102 9.10081 62.5947 9.44456 62.6549 9.78079L63.1472 12.5259C63.2919 13.3328 62.4574 13.9615 61.7217 13.5998L58.9412 12.2329C58.663 12.0961 58.337 12.0961 58.0588 12.2329L55.2783 13.5998C54.5426 13.9615 53.7081 13.3328 53.8528 12.5259L54.3451 9.78079C54.4053 9.44456 54.2898 9.10081 54.0387 8.86922L51.9704 6.96156C51.3498 6.38909 51.6741 5.35257 52.5104 5.23605L55.4847 4.82166C55.8032 4.77729 56.0809 4.58245 56.231 4.29808L57.6157 1.67518Z" fill="#3D57F4"/>
<path d="M74.6157 1.67518C74.9909 0.964306 76.0091 0.964308 76.3843 1.67518L77.769 4.29808C77.9191 4.58245 78.1968 4.77729 78.5153 4.82166L81.4896 5.23605C82.3259 5.35257 82.6502 6.38909 82.0296 6.96156L79.9613 8.86922C79.7102 9.10081 79.5947 9.44456 79.6549 9.78079L80.1472 12.5259C80.2919 13.3328 79.4574 13.9615 78.7217 13.5998L75.9412 12.2329C75.663 12.0961 75.337 12.0961 75.0588 12.2329L72.2783 13.5998C71.5426 13.9615 70.7081 13.3328 70.8528 12.5259L71.3451 9.78079C71.4053 9.44456 71.2898 9.10081 71.0387 8.86922L68.9704 6.96156C68.3498 6.38909 68.6741 5.35257 69.5104 5.23605L72.4847 4.82166C72.8032 4.77729 73.0809 4.58245 73.231 4.29808L74.6157 1.67518Z" fill="#3D57F4"/>
</svg>
