<svg width="778" height="1486" viewBox="0 0 778 1486" fill="none" xmlns="http://www.w3.org/2000/svg">
<path d="M19 14C19 16.7614 16.7614 19 14 19C11.2386 19 9 16.7614 9 14C9 11.2386 11.2386 9 14 9C16.7614 9 19 11.2386 19 14Z" fill="#FEB85D"/>
<path fill-rule="evenodd" clip-rule="evenodd" d="M28 14C28 21.732 21.732 28 14 28C6.26801 28 0 21.732 0 14C0 6.26801 6.26801 0 14 0C21.732 0 28 6.26801 28 14ZM14 19C16.7614 19 19 16.7614 19 14C19 11.2386 16.7614 9 14 9C11.2386 9 9 11.2386 9 14C9 16.7614 11.2386 19 14 19Z" fill="#FBF1E8"/>
<path d="M763.5 1472C763.5 1472.28 763.724 1472.5 764 1472.5C764.276 1472.5 764.5 1472.28 764.5 1472H763.5ZM13.5 21.5V23.0082H14.5V21.5H13.5ZM13.5 26.0245V29.0408H14.5V26.0245H13.5ZM13.5 32.0571V35.0734H14.5V32.0571H13.5ZM13.5 38.0897V41.106H14.5V38.0897H13.5ZM13.5 44.1223V47.1386H14.5V44.1223H13.5ZM13.5 50.1549V53.1712H14.5V50.1549H13.5ZM13.5 56.1875V59.2038H14.5V56.1875H13.5ZM13.5 62.2201V65.2364H14.5V62.2201H13.5ZM13.5 68.2527V71.269H14.5V68.2527H13.5ZM13.5 74.2853V77.3016H14.5V74.2853H13.5ZM13.5 80.3179V83.3342H14.5V80.3179H13.5ZM13.5 86.3505V89.3668H14.5V86.3505H13.5ZM13.5 92.3832V95.3995H14.5V92.3832H13.5ZM13.5 98.4158V101.432H14.5V98.4158H13.5ZM13.5 104.448V107.465H14.5V104.448H13.5ZM13.5 110.481V113.497H14.5V110.481H13.5ZM13.5 116.514V119.53H14.5V116.514H13.5ZM13.5 122.546V125.562H14.5V122.546H13.5ZM13.5 128.579V131.595H14.5V128.579H13.5ZM13.5 134.611V137.628H14.5V134.611H13.5ZM13.5 140.644V143.66H14.5V140.644H13.5ZM13.5 146.677V149.693H14.5V146.677H13.5ZM13.5 152.709V155.726H14.5V152.709H13.5ZM13.5 158.742V161.758H14.5V158.742H13.5ZM13.5 164.775V167.791H14.5V164.775H13.5ZM13.5 170.807V173.823H14.5V170.807H13.5ZM13.5 176.84V179.856H14.5V176.84H13.5ZM13.5 182.872V185.889H14.5V182.872H13.5ZM13.5 188.905V191.921H14.5V188.905H13.5ZM13.5 194.938V197.954H14.5V194.938H13.5ZM13.5 200.97V203.987H14.5V200.97H13.5ZM13.5 207.003V210.019H14.5V207.003H13.5ZM13.5 213.035V216.052H14.5V213.035H13.5ZM13.5 219.068V222.084H14.5V219.068H13.5ZM13.5 225.101V228.117H14.5V225.101H13.5ZM13.5 231.133V234.15H14.5V231.133H13.5ZM13.5 237.166V240.182H14.5V237.166H13.5ZM13.5 243.199V246.215H14.5V243.199H13.5ZM13.5 249.231V252.248H14.5V249.231H13.5ZM13.5 255.264V258.28H14.5V255.264H13.5ZM13.5 261.296V264.313H14.5V261.296H13.5ZM13.5 267.329V270.345H14.5V267.329H13.5ZM13.5 273.362V276.378H14.5V273.362H13.5ZM13.5 279.394V282.411H14.5V279.394H13.5ZM13.5 285.427V288.443H14.5V285.427H13.5ZM13.5 291.46V294.476H14.5V291.46H13.5ZM13.5 297.492V299H14.5V297.492H13.5ZM13.5 299C13.5 299.499 13.5138 299.994 13.541 300.486L14.5395 300.431C14.5133 299.957 14.5 299.48 14.5 299H13.5ZM13.8705 303.44C14.0368 304.426 14.2575 305.393 14.5295 306.339L15.4905 306.062C15.2289 305.153 15.0166 304.222 14.8566 303.274L13.8705 303.44ZM15.511 309.144C15.8924 310.064 16.324 310.957 16.8025 311.821L17.6773 311.337C17.2169 310.505 16.8016 309.646 16.4348 308.761L15.511 309.144ZM18.3861 314.336C18.9611 315.145 19.5803 315.92 20.2403 316.658L20.9857 315.992C20.3505 315.281 19.7545 314.535 19.2011 313.757L18.3861 314.336ZM22.3416 318.76C23.0797 319.42 23.8549 320.039 24.6638 320.614L25.2432 319.799C24.4647 319.246 23.7186 318.65 23.0082 318.014L22.3416 318.76ZM27.179 322.198C28.0429 322.676 28.9363 323.108 29.856 323.489L30.239 322.565C29.3543 322.198 28.4947 321.783 27.6635 321.323L27.179 322.198ZM32.6611 324.471C33.6067 324.742 34.5739 324.963 35.5595 325.13L35.7259 324.143C34.7776 323.983 33.8471 323.771 32.9376 323.509L32.6611 324.471ZM38.5138 325.459C39.0058 325.486 39.5013 325.5 40 325.5V324.5C39.5197 324.5 39.0426 324.487 38.569 324.461L38.5138 325.459ZM40 325.5H41.5043V324.5H40V325.5ZM44.5129 325.5H47.5215V324.5H44.5129V325.5ZM50.5302 325.5H53.5388V324.5H50.5302V325.5ZM56.5474 325.5H59.556V324.5H56.5474V325.5ZM62.5647 325.5H65.5733V324.5H62.5647V325.5ZM68.5819 325.5H71.5905V324.5H68.5819V325.5ZM74.5991 325.5H77.6078V324.5H74.5991V325.5ZM80.6164 325.5H83.625V324.5H80.6164V325.5ZM86.6336 325.5H89.6422V324.5H86.6336V325.5ZM92.6509 325.5H95.6595V324.5H92.6509V325.5ZM98.6681 325.5H101.677V324.5H98.6681V325.5ZM104.685 325.5H107.694V324.5H104.685V325.5ZM110.703 325.5H113.711V324.5H110.703V325.5ZM116.72 325.5H119.728V324.5H116.72V325.5ZM122.737 325.5H125.746V324.5H122.737V325.5ZM128.754 325.5H131.763V324.5H128.754V325.5ZM134.772 325.5H137.78V324.5H134.772V325.5ZM140.789 325.5H143.797V324.5H140.789V325.5ZM146.806 325.5H149.815V324.5H146.806V325.5ZM152.823 325.5H155.832V324.5H152.823V325.5ZM158.841 325.5H161.849V324.5H158.841V325.5ZM164.858 325.5H167.866V324.5H164.858V325.5ZM170.875 325.5H173.884V324.5H170.875V325.5ZM176.892 325.5H179.901V324.5H176.892V325.5ZM182.91 325.5H185.918V324.5H182.91V325.5ZM188.927 325.5H191.935V324.5H188.927V325.5ZM194.944 325.5H197.953V324.5H194.944V325.5ZM200.961 325.5H203.97V324.5H200.961V325.5ZM206.978 325.5H209.987V324.5H206.978V325.5ZM212.996 325.5H216.004V324.5H212.996V325.5ZM219.013 325.5H222.022V324.5H219.013V325.5ZM225.03 325.5H228.039V324.5H225.03V325.5ZM231.047 325.5H234.056V324.5H231.047V325.5ZM237.065 325.5H240.073V324.5H237.065V325.5ZM243.082 325.5H246.091V324.5H243.082V325.5ZM249.099 325.5H252.108V324.5H249.099V325.5ZM255.116 325.5H258.125V324.5H255.116V325.5ZM261.134 325.5H264.142V324.5H261.134V325.5ZM267.151 325.5H270.16V324.5H267.151V325.5ZM273.168 325.5H276.177V324.5H273.168V325.5ZM279.185 325.5H282.194V324.5H279.185V325.5ZM285.203 325.5H288.211V324.5H285.203V325.5ZM291.22 325.5H294.228V324.5H291.22V325.5ZM297.237 325.5H300.246V324.5H297.237V325.5ZM303.254 325.5H306.263V324.5H303.254V325.5ZM309.272 325.5H312.28V324.5H309.272V325.5ZM315.289 325.5H318.297V324.5H315.289V325.5ZM321.306 325.5H324.315V324.5H321.306V325.5ZM327.323 325.5H330.332V324.5H327.323V325.5ZM333.34 325.5H336.349V324.5H333.34V325.5ZM339.358 325.5H342.366V324.5H339.358V325.5ZM345.375 325.5H348.383V324.5H345.375V325.5ZM351.392 325.5H354.401V324.5H351.392V325.5ZM357.409 325.5H360.418V324.5H357.409V325.5ZM363.426 325.5H366.435V324.5H363.426V325.5ZM369.444 325.5H372.452V324.5H369.444V325.5ZM375.461 325.5H378.469V324.5H375.461V325.5ZM381.478 325.5H384.487V324.5H381.478V325.5ZM387.495 325.5H390.504V324.5H387.495V325.5ZM393.513 325.5H396.521V324.5H393.513V325.5ZM399.53 325.5H402.538V324.5H399.53V325.5ZM405.547 325.5H408.556V324.5H405.547V325.5ZM411.564 325.5H414.573V324.5H411.564V325.5ZM417.581 325.5H420.59V324.5H417.581V325.5ZM423.599 325.5H426.607V324.5H423.599V325.5ZM429.616 325.5H432.624V324.5H429.616V325.5ZM435.633 325.5H438.642V324.5H435.633V325.5ZM441.65 325.5H444.659V324.5H441.65V325.5ZM447.667 325.5H450.676V324.5H447.667V325.5ZM453.685 325.5H456.693V324.5H453.685V325.5ZM459.702 325.5H462.71V324.5H459.702V325.5ZM465.719 325.5H468.728V324.5H465.719V325.5ZM471.736 325.5H474.745V324.5H471.736V325.5ZM477.753 325.5H480.762V324.5H477.753V325.5ZM483.771 325.5H486.779V324.5H483.771V325.5ZM489.788 325.5H492.796V324.5H489.788V325.5ZM495.805 325.5H498.814V324.5H495.805V325.5ZM501.822 325.5H504.831V324.5H501.822V325.5ZM507.84 325.5H510.848V324.5H507.84V325.5ZM513.857 325.5H516.865V324.5H513.857V325.5ZM519.874 325.5H522.883V324.5H519.874V325.5ZM525.891 325.5H528.9V324.5H525.891V325.5ZM531.908 325.5H534.917V324.5H531.908V325.5ZM537.926 325.5H540.934V324.5H537.926V325.5ZM543.943 325.5H546.951V324.5H543.943V325.5ZM549.96 325.5H552.969V324.5H549.96V325.5ZM555.977 325.5H558.986V324.5H555.977V325.5ZM561.994 325.5H565.003V324.5H561.994V325.5ZM568.012 325.5H571.02V324.5H568.012V325.5ZM574.029 325.5H577.037V324.5H574.029V325.5ZM580.046 325.5H583.055V324.5H580.046V325.5ZM586.063 325.5H589.072V324.5H586.063V325.5ZM592.081 325.5H595.089V324.5H592.081V325.5ZM598.098 325.5H601.106V324.5H598.098V325.5ZM604.115 325.5H607.124V324.5H604.115V325.5ZM610.132 325.5H613.141V324.5H610.132V325.5ZM616.149 325.5H619.158V324.5H616.149V325.5ZM622.167 325.5H625.175V324.5H622.167V325.5ZM628.184 325.5H631.192V324.5H628.184V325.5ZM634.201 325.5H637.21V324.5H634.201V325.5ZM640.218 325.5H643.227V324.5H640.218V325.5ZM646.235 325.5H649.244V324.5H646.235V325.5ZM652.253 325.5H655.261V324.5H652.253V325.5ZM658.27 325.5H661.278V324.5H658.27V325.5ZM664.287 325.5H667.296V324.5H664.287V325.5ZM670.304 325.5H673.313V324.5H670.304V325.5ZM676.321 325.5H679.33V324.5H676.321V325.5ZM682.339 325.5H685.347V324.5H682.339V325.5ZM688.356 325.5H691.365V324.5H688.356V325.5ZM694.373 325.5H697.382V324.5H694.373V325.5ZM700.39 325.5H703.399V324.5H700.39V325.5ZM706.408 325.5H709.416V324.5H706.408V325.5ZM712.425 325.5H715.433V324.5H712.425V325.5ZM718.442 325.5H721.451V324.5H718.442V325.5ZM724.459 325.5H727.468V324.5H724.459V325.5ZM730.476 325.5H733.485V324.5H730.476V325.5ZM736.494 325.5H738V324.5H736.494V325.5ZM738 325.5C738.48 325.5 738.957 325.513 739.431 325.539L739.486 324.541C738.994 324.514 738.499 324.5 738 324.5V325.5ZM742.274 325.857C743.222 326.017 744.153 326.229 745.062 326.491L745.339 325.529C744.393 325.258 743.426 325.037 742.44 324.87L742.274 325.857ZM747.761 327.435C748.646 327.802 749.505 328.217 750.337 328.677L750.821 327.802C749.957 327.324 749.064 326.892 748.144 326.511L747.761 327.435ZM752.757 330.201C753.535 330.754 754.281 331.35 754.992 331.986L755.658 331.24C754.92 330.58 754.145 329.961 753.336 329.386L752.757 330.201ZM757.014 334.008C757.649 334.719 758.245 335.465 758.799 336.243L759.614 335.664C759.039 334.855 758.42 334.08 757.76 333.342L757.014 334.008ZM760.323 338.663C760.783 339.495 761.198 340.354 761.565 341.239L762.489 340.856C762.108 339.936 761.676 339.043 761.198 338.179L760.323 338.663ZM762.509 343.938C762.771 344.847 762.983 345.778 763.143 346.726L764.13 346.56C763.963 345.574 763.742 344.607 763.471 343.661L762.509 343.938ZM763.461 349.569C763.487 350.043 763.5 350.52 763.5 351H764.5C764.5 350.501 764.486 350.006 764.459 349.514L763.461 349.569ZM763.5 351V352.496H764.5V351H763.5ZM763.5 355.489V358.482H764.5V355.489H763.5ZM763.5 361.474V364.467H764.5V361.474H763.5ZM763.5 367.46V370.452H764.5V367.46H763.5ZM763.5 373.445V376.438H764.5V373.445H763.5ZM763.5 379.43V382.423H764.5V379.43H763.5ZM763.5 385.415V388.408H764.5V385.415H763.5ZM763.5 391.401V394.393H764.5V391.401H763.5ZM763.5 397.386V400.379H764.5V397.386H763.5ZM763.5 403.371V406.364H764.5V403.371H763.5ZM763.5 409.357V412.349H764.5V409.357H763.5ZM763.5 415.342V418.335H764.5V415.342H763.5ZM763.5 421.327V424.32H764.5V421.327H763.5ZM763.5 427.312V430.305H764.5V427.312H763.5ZM763.5 433.298V436.29H764.5V433.298H763.5ZM763.5 439.283V442.276H764.5V439.283H763.5ZM763.5 445.268V448.261H764.5V445.268H763.5ZM763.5 451.254V454.246H764.5V451.254H763.5ZM763.5 457.239V460.232H764.5V457.239H763.5ZM763.5 463.224V466.217H764.5V463.224H763.5ZM763.5 469.21V472.202H764.5V469.21H763.5ZM763.5 475.195V478.187H764.5V475.195H763.5ZM763.5 481.18V484.173H764.5V481.18H763.5ZM763.5 487.165V490.158H764.5V487.165H763.5ZM763.5 493.151V496.143H764.5V493.151H763.5ZM763.5 499.136V502.129H764.5V499.136H763.5ZM763.5 505.121V508.114H764.5V505.121H763.5ZM763.5 511.107V514.099H764.5V511.107H763.5ZM763.5 517.092V520.085H764.5V517.092H763.5ZM763.5 523.077V526.07H764.5V523.077H763.5ZM763.5 529.062V532.055H764.5V529.062H763.5ZM763.5 535.048V538.04H764.5V535.048H763.5ZM763.5 541.033V544.026H764.5V541.033H763.5ZM763.5 547.018V550.011H764.5V547.018H763.5ZM763.5 553.004V555.996H764.5V553.004H763.5ZM763.5 558.989V561.982H764.5V558.989H763.5ZM763.5 564.974V567.967H764.5V564.974H763.5ZM763.5 570.959V573.952H764.5V570.959H763.5ZM763.5 576.945V579.937H764.5V576.945H763.5ZM763.5 582.93V585.923H764.5V582.93H763.5ZM763.5 588.915V591.908H764.5V588.915H763.5ZM763.5 594.901V597.893H764.5V594.901H763.5ZM763.5 600.886V603.879H764.5V600.886H763.5ZM763.5 606.871V609.864H764.5V606.871H763.5ZM763.5 612.857V615.849H764.5V612.857H763.5ZM763.5 618.842V621.834H764.5V618.842H763.5ZM763.5 624.827V627.82H764.5V624.827H763.5ZM763.5 630.812V633.805H764.5V630.812H763.5ZM763.5 636.798V639.79H764.5V636.798H763.5ZM763.5 642.783V645.776H764.5V642.783H763.5ZM763.5 648.768V651.761H764.5V648.768H763.5ZM763.5 654.754V657.746H764.5V654.754H763.5ZM763.5 660.739V663.732H764.5V660.739H763.5ZM763.5 666.724V669.717H764.5V666.724H763.5ZM763.5 672.709V675.702H764.5V672.709H763.5ZM763.5 678.695V681.687H764.5V678.695H763.5ZM763.5 684.68V687.673H764.5V684.68H763.5ZM763.5 690.665V693.658H764.5V690.665H763.5ZM763.5 696.651V699.643H764.5V696.651H763.5ZM763.5 702.636V705.629H764.5V702.636H763.5ZM763.5 708.621V711.614H764.5V708.621H763.5ZM763.5 714.606V717.599H764.5V714.606H763.5ZM763.5 720.592V723.584H764.5V720.592H763.5ZM763.5 726.577V729.57H764.5V726.577H763.5ZM763.5 732.562V735.555H764.5V732.562H763.5ZM763.5 738.548V741.54H764.5V738.548H763.5ZM763.5 744.533V747.526H764.5V744.533H763.5ZM763.5 750.518V753.511H764.5V750.518H763.5ZM763.5 756.503V758H764.5V756.503H763.5ZM763.5 758C763.5 758.48 763.487 758.957 763.461 759.431L764.459 759.486C764.486 758.994 764.5 758.499 764.5 758H763.5ZM763.143 762.274C762.983 763.222 762.771 764.153 762.509 765.062L763.471 765.339C763.742 764.393 763.963 763.426 764.13 762.44L763.143 762.274ZM761.565 767.761C761.198 768.646 760.783 769.505 760.323 770.337L761.198 770.821C761.676 769.957 762.108 769.064 762.489 768.144L761.565 767.761ZM758.799 772.757C758.245 773.535 757.649 774.281 757.014 774.992L757.76 775.658C758.42 774.92 759.039 774.145 759.614 773.336L758.799 772.757ZM754.992 777.014C754.281 777.649 753.535 778.245 752.757 778.799L753.336 779.614C754.145 779.039 754.92 778.42 755.658 777.76L754.992 777.014ZM750.337 780.323C749.505 780.783 748.646 781.198 747.761 781.565L748.144 782.489C749.064 782.108 749.957 781.676 750.821 781.198L750.337 780.323ZM745.062 782.509C744.153 782.771 743.222 782.983 742.274 783.143L742.44 784.13C743.426 783.963 744.393 783.742 745.339 783.471L745.062 782.509ZM739.431 783.461C738.957 783.487 738.48 783.5 738 783.5V784.5C738.499 784.5 738.994 784.486 739.486 784.459L739.431 783.461ZM738 783.5H736.496V784.5H738V783.5ZM733.487 783.5H730.478V784.5H733.487V783.5ZM727.47 783.5H724.461V784.5H727.47V783.5ZM721.453 783.5H718.444V784.5H721.453V783.5ZM715.435 783.5H712.427V784.5H715.435V783.5ZM709.418 783.5H706.409V784.5H709.418V783.5ZM703.401 783.5H700.392V784.5H703.401V783.5ZM697.384 783.5H694.375V784.5H697.384V783.5ZM691.366 783.5H688.358V784.5H691.366V783.5ZM685.349 783.5H682.341V784.5H685.349V783.5ZM679.332 783.5H676.323V784.5H679.332V783.5ZM673.315 783.5H670.306V784.5H673.315V783.5ZM667.297 783.5H664.289V784.5H667.297V783.5ZM661.28 783.5H658.272V784.5H661.28V783.5ZM655.263 783.5H652.254V784.5H655.263V783.5ZM649.246 783.5H646.237V784.5H649.246V783.5ZM643.228 783.5H640.22V784.5H643.228V783.5ZM637.211 783.5H634.203V784.5H637.211V783.5ZM631.194 783.5H628.185V784.5H631.194V783.5ZM625.177 783.5H622.168V784.5H625.177V783.5ZM619.159 783.5H616.151V784.5H619.159V783.5ZM613.142 783.5H610.134V784.5H613.142V783.5ZM607.125 783.5H604.116V784.5H607.125V783.5ZM601.108 783.5H598.099V784.5H601.108V783.5ZM595.091 783.5H592.082V784.5H595.091V783.5ZM589.073 783.5H586.065V784.5H589.073V783.5ZM583.056 783.5H580.047V784.5H583.056V783.5ZM577.039 783.5H574.03V784.5H577.039V783.5ZM571.022 783.5H568.013V784.5H571.022V783.5ZM565.004 783.5H561.996V784.5H565.004V783.5ZM558.987 783.5H555.978V784.5H558.987V783.5ZM552.97 783.5H549.961V784.5H552.97V783.5ZM546.953 783.5H543.944V784.5H546.953V783.5ZM540.935 783.5H537.927V784.5H540.935V783.5ZM534.918 783.5H531.909V784.5H534.918V783.5ZM528.901 783.5H525.892V784.5H528.901V783.5ZM522.884 783.5H519.875V784.5H522.884V783.5ZM516.866 783.5H513.858V784.5H516.866V783.5ZM510.849 783.5H507.84V784.5H510.849V783.5ZM504.832 783.5H501.823V784.5H504.832V783.5ZM498.815 783.5H495.806V784.5H498.815V783.5ZM492.797 783.5H489.789V784.5H492.797V783.5ZM486.78 783.5H483.772V784.5H486.78V783.5ZM480.763 783.5H477.754V784.5H480.763V783.5ZM474.746 783.5H471.737V784.5H474.746V783.5ZM468.728 783.5H465.72V784.5H468.728V783.5ZM462.711 783.5H459.703V784.5H462.711V783.5ZM456.694 783.5H453.685V784.5H456.694V783.5ZM450.677 783.5H447.668V784.5H450.677V783.5ZM444.66 783.5H441.651V784.5H444.66V783.5ZM438.642 783.5H435.634V784.5H438.642V783.5ZM432.625 783.5H429.617V784.5H432.625V783.5ZM426.608 783.5H423.599V784.5H426.608V783.5ZM420.591 783.5H417.582V784.5H420.591V783.5ZM414.574 783.5H411.565V784.5H414.574V783.5ZM408.556 783.5H405.548V784.5H408.556V783.5ZM402.539 783.5H399.531V784.5H402.539V783.5ZM396.522 783.5H393.513V784.5H396.522V783.5ZM390.505 783.5H387.496V784.5H390.505V783.5ZM384.487 783.5H381.479V784.5H384.487V783.5ZM378.47 783.5H375.462V784.5H378.47V783.5ZM372.453 783.5H369.444V784.5H372.453V783.5ZM366.436 783.5H363.427V784.5H366.436V783.5ZM360.419 783.5H357.41V784.5H360.419V783.5ZM354.401 783.5H351.393V784.5H354.401V783.5ZM348.384 783.5H345.376V784.5H348.384V783.5ZM342.367 783.5H339.358V784.5H342.367V783.5ZM336.35 783.5H333.341V784.5H336.35V783.5ZM330.333 783.5H327.324V784.5H330.333V783.5ZM324.315 783.5H321.307V784.5H324.315V783.5ZM318.298 783.5H315.29V784.5H318.298V783.5ZM312.281 783.5H309.272V784.5H312.281V783.5ZM306.264 783.5H303.255V784.5H306.264V783.5ZM300.247 783.5H297.238V784.5H300.247V783.5ZM294.229 783.5H291.221V784.5H294.229V783.5ZM288.212 783.5H285.204V784.5H288.212V783.5ZM282.195 783.5H279.186V784.5H282.195V783.5ZM276.178 783.5H273.169V784.5H276.178V783.5ZM270.16 783.5H267.152V784.5H270.16V783.5ZM264.143 783.5H261.135V784.5H264.143V783.5ZM258.126 783.5H255.117V784.5H258.126V783.5ZM252.109 783.5H249.1V784.5H252.109V783.5ZM246.092 783.5H243.083V784.5H246.092V783.5ZM240.074 783.5H237.066V784.5H240.074V783.5ZM234.057 783.5H231.049V784.5H234.057V783.5ZM228.04 783.5H225.031V784.5H228.04V783.5ZM222.023 783.5H219.014V784.5H222.023V783.5ZM216.006 783.5H212.997V784.5H216.006V783.5ZM209.988 783.5H206.98V784.5H209.988V783.5ZM203.971 783.5H200.963V784.5H203.971V783.5ZM197.954 783.5H194.945V784.5H197.954V783.5ZM191.937 783.5H188.928V784.5H191.937V783.5ZM185.919 783.5H182.911V784.5H185.919V783.5ZM179.902 783.5H176.894V784.5H179.902V783.5ZM173.885 783.5H170.876V784.5H173.885V783.5ZM167.868 783.5H164.859V784.5H167.868V783.5ZM161.851 783.5H158.842V784.5H161.851V783.5ZM155.833 783.5H152.825V784.5H155.833V783.5ZM149.816 783.5H146.808V784.5H149.816V783.5ZM143.799 783.5H140.79V784.5H143.799V783.5ZM137.782 783.5H134.773V784.5H137.782V783.5ZM131.765 783.5H128.756V784.5H131.765V783.5ZM125.747 783.5H122.739V784.5H125.747V783.5ZM119.73 783.5H116.722V784.5H119.73V783.5ZM113.713 783.5H110.704V784.5H113.713V783.5ZM107.696 783.5H104.687V784.5H107.696V783.5ZM101.679 783.5H98.6699V784.5H101.679V783.5ZM95.6613 783.5H92.6527V784.5H95.6613V783.5ZM89.6441 783.5H86.6355V784.5H89.6441V783.5ZM83.6269 783.5H80.6183V784.5H83.6269V783.5ZM77.6097 783.5H74.6011V784.5H77.6097V783.5ZM71.5925 783.5H68.5838V784.5H71.5925V783.5ZM65.5752 783.5H62.5667V784.5H65.5752V783.5ZM59.5581 783.5H56.5494V784.5H59.5581V783.5ZM53.5408 783.5H50.5322V784.5H53.5408V783.5ZM47.5236 783.5H44.515V784.5H47.5236V783.5ZM41.5064 783.5H40V784.5H41.5064V783.5ZM40 783.5C39.5013 783.5 39.0058 783.514 38.5138 783.541L38.569 784.539C39.0426 784.513 39.5197 784.5 40 784.5V783.5ZM35.5595 783.87C34.5739 784.037 33.6067 784.258 32.6611 784.529L32.9376 785.491C33.8471 785.229 34.7776 785.017 35.7259 784.857L35.5595 783.87ZM29.856 785.511C28.9363 785.892 28.0429 786.324 27.179 786.802L27.6635 787.677C28.4947 787.217 29.3543 786.802 30.239 786.435L29.856 785.511ZM24.6638 788.386C23.8549 788.961 23.0796 789.58 22.3416 790.24L23.0082 790.986C23.7186 790.351 24.4647 789.755 25.2432 789.201L24.6638 788.386ZM20.2403 792.342C19.5803 793.08 18.9611 793.855 18.3861 794.664L19.2011 795.243C19.7545 794.465 20.3505 793.719 20.9857 793.008L20.2403 792.342ZM16.8025 797.179C16.324 798.043 15.8924 798.936 15.511 799.856L16.4348 800.239C16.8016 799.354 17.2169 798.495 17.6773 797.663L16.8025 797.179ZM14.5295 802.661C14.2575 803.607 14.0368 804.574 13.8705 805.56L14.8566 805.726C15.0166 804.778 15.2289 803.847 15.4905 802.938L14.5295 802.661ZM13.541 808.514C13.5138 809.006 13.5 809.501 13.5 810H14.5C14.5 809.52 14.5133 809.043 14.5395 808.569L13.541 808.514ZM13.5 810V811.502H14.5V810H13.5ZM13.5 814.507V817.512H14.5V814.507H13.5ZM13.5 820.516V823.521H14.5V820.516H13.5ZM13.5 826.525V829.53H14.5V826.525H13.5ZM13.5 832.535V835.539H14.5V832.535H13.5ZM13.5 838.544V841.549H14.5V838.544H13.5ZM13.5 844.553V847.558H14.5V844.553H13.5ZM13.5 850.562V853.567H14.5V850.562H13.5ZM13.5 856.572V859.576H14.5V856.572H13.5ZM13.5 862.581V865.586H14.5V862.581H13.5ZM13.5 868.59V871.595H14.5V868.59H13.5ZM13.5 874.6V877.604H14.5V874.6H13.5ZM13.5 880.609V883.613H14.5V880.609H13.5ZM13.5 886.618V889.623H14.5V886.618H13.5ZM13.5 892.627V895.632H14.5V892.627H13.5ZM13.5 898.637V901.641H14.5V898.637H13.5ZM13.5 904.646V907.651H14.5V904.646H13.5ZM13.5 910.655V913.66H14.5V910.655H13.5ZM13.5 916.664V919.669H14.5V916.664H13.5ZM13.5 922.674V925.678H14.5V922.674H13.5ZM13.5 928.683V931.688H14.5V928.683H13.5ZM13.5 934.692V937.697H14.5V934.692H13.5ZM13.5 940.701V943.706H14.5V940.701H13.5ZM13.5 946.711V949.715H14.5V946.711H13.5ZM13.5 952.72V955.725H14.5V952.72H13.5ZM13.5 958.729V961.734H14.5V958.729H13.5ZM13.5 964.738V967.743H14.5V964.738H13.5ZM13.5 970.748V973.752H14.5V970.748H13.5ZM13.5 976.757V979.762H14.5V976.757H13.5ZM13.5 982.766V985.771H14.5V982.766H13.5ZM13.5 988.775V991.78H14.5V988.775H13.5ZM13.5 994.785V997.789H14.5V994.785H13.5ZM13.5 1000.79V1003.8H14.5V1000.79H13.5ZM13.5 1006.8V1009.81H14.5V1006.8H13.5ZM13.5 1012.81V1015.82H14.5V1012.81H13.5ZM13.5 1018.82V1021.83H14.5V1018.82H13.5ZM13.5 1024.83V1027.84H14.5V1024.83H13.5ZM13.5 1030.84V1033.84H14.5V1030.84H13.5ZM13.5 1036.85V1039.85H14.5V1036.85H13.5ZM13.5 1042.86V1045.86H14.5V1042.86H13.5ZM13.5 1048.87V1051.87H14.5V1048.87H13.5ZM13.5 1054.88V1057.88H14.5V1054.88H13.5ZM13.5 1060.89V1063.89H14.5V1060.89H13.5ZM13.5 1066.9V1069.9H14.5V1066.9H13.5ZM13.5 1072.9V1075.91H14.5V1072.9H13.5ZM13.5 1078.91V1081.92H14.5V1078.91H13.5ZM13.5 1084.92V1087.93H14.5V1084.92H13.5ZM13.5 1090.93V1093.94H14.5V1090.93H13.5ZM13.5 1096.94V1099.95H14.5V1096.94H13.5ZM13.5 1102.95V1105.96H14.5V1102.95H13.5ZM13.5 1108.96V1111.97H14.5V1108.96H13.5ZM13.5 1114.97V1117.97H14.5V1114.97H13.5ZM13.5 1120.98V1123.98H14.5V1120.98H13.5ZM13.5 1126.99V1129.99H14.5V1126.99H13.5ZM13.5 1133V1134.5H14.5V1133H13.5ZM13.5 1134.5C13.5 1135 13.5138 1135.49 13.541 1135.99L14.5395 1135.93C14.5133 1135.46 14.5 1134.98 14.5 1134.5H13.5ZM13.8705 1138.94C14.0368 1139.93 14.2575 1140.89 14.5295 1141.84L15.4905 1141.56C15.2289 1140.65 15.0166 1139.72 14.8566 1138.77L13.8705 1138.94ZM15.511 1144.64C15.8924 1145.56 16.324 1146.46 16.8025 1147.32L17.6773 1146.84C17.2169 1146.01 16.8016 1145.15 16.4348 1144.26L15.511 1144.64ZM18.3861 1149.84C18.9611 1150.65 19.5803 1151.42 20.2403 1152.16L20.9857 1151.49C20.3505 1150.78 19.7545 1150.04 19.2011 1149.26L18.3861 1149.84ZM22.3416 1154.26C23.0797 1154.92 23.8549 1155.54 24.6638 1156.11L25.2432 1155.3C24.4647 1154.75 23.7186 1154.15 23.0082 1153.51L22.3416 1154.26ZM27.179 1157.7C28.0429 1158.18 28.9363 1158.61 29.856 1158.99L30.239 1158.07C29.3543 1157.7 28.4947 1157.28 27.6635 1156.82L27.179 1157.7ZM32.6611 1159.97C33.6067 1160.24 34.5739 1160.46 35.5595 1160.63L35.7259 1159.64C34.7776 1159.48 33.8471 1159.27 32.9376 1159.01L32.6611 1159.97ZM38.5138 1160.96C39.0058 1160.99 39.5013 1161 40 1161V1160C39.5197 1160 39.0426 1159.99 38.569 1159.96L38.5138 1160.96ZM40 1161H41.5043V1160H40V1161ZM44.5129 1161H47.5215V1160H44.5129V1161ZM50.5302 1161H53.5388V1160H50.5302V1161ZM56.5474 1161H59.556V1160H56.5474V1161ZM62.5647 1161H65.5733V1160H62.5647V1161ZM68.5819 1161H71.5905V1160H68.5819V1161ZM74.5991 1161H77.6078V1160H74.5991V1161ZM80.6164 1161H83.625V1160H80.6164V1161ZM86.6336 1161H89.6422V1160H86.6336V1161ZM92.6509 1161H95.6595V1160H92.6509V1161ZM98.6681 1161H101.677V1160H98.6681V1161ZM104.685 1161H107.694V1160H104.685V1161ZM110.703 1161H113.711V1160H110.703V1161ZM116.72 1161H119.728V1160H116.72V1161ZM122.737 1161H125.746V1160H122.737V1161ZM128.754 1161H131.763V1160H128.754V1161ZM134.772 1161H137.78V1160H134.772V1161ZM140.789 1161H143.797V1160H140.789V1161ZM146.806 1161H149.815V1160H146.806V1161ZM152.823 1161H155.832V1160H152.823V1161ZM158.841 1161H161.849V1160H158.841V1161ZM164.858 1161H167.866V1160H164.858V1161ZM170.875 1161H173.884V1160H170.875V1161ZM176.892 1161H179.901V1160H176.892V1161ZM182.91 1161H185.918V1160H182.91V1161ZM188.927 1161H191.935V1160H188.927V1161ZM194.944 1161H197.953V1160H194.944V1161ZM200.961 1161H203.97V1160H200.961V1161ZM206.978 1161H209.987V1160H206.978V1161ZM212.996 1161H216.004V1160H212.996V1161ZM219.013 1161H222.022V1160H219.013V1161ZM225.03 1161H228.039V1160H225.03V1161ZM231.047 1161H234.056V1160H231.047V1161ZM237.065 1161H240.073V1160H237.065V1161ZM243.082 1161H246.091V1160H243.082V1161ZM249.099 1161H252.108V1160H249.099V1161ZM255.116 1161H258.125V1160H255.116V1161ZM261.134 1161H264.142V1160H261.134V1161ZM267.151 1161H270.16V1160H267.151V1161ZM273.168 1161H276.177V1160H273.168V1161ZM279.185 1161H282.194V1160H279.185V1161ZM285.203 1161H288.211V1160H285.203V1161ZM291.22 1161H294.228V1160H291.22V1161ZM297.237 1161H300.246V1160H297.237V1161ZM303.254 1161H306.263V1160H303.254V1161ZM309.272 1161H312.28V1160H309.272V1161ZM315.289 1161H318.297V1160H315.289V1161ZM321.306 1161H324.315V1160H321.306V1161ZM327.323 1161H330.332V1160H327.323V1161ZM333.34 1161H336.349V1160H333.34V1161ZM339.358 1161H342.366V1160H339.358V1161ZM345.375 1161H348.383V1160H345.375V1161ZM351.392 1161H354.401V1160H351.392V1161ZM357.409 1161H360.418V1160H357.409V1161ZM363.426 1161H366.435V1160H363.426V1161ZM369.444 1161H372.452V1160H369.444V1161ZM375.461 1161H378.469V1160H375.461V1161ZM381.478 1161H384.487V1160H381.478V1161ZM387.495 1161H390.504V1160H387.495V1161ZM393.513 1161H396.521V1160H393.513V1161ZM399.53 1161H402.538V1160H399.53V1161ZM405.547 1161H408.556V1160H405.547V1161ZM411.564 1161H414.573V1160H411.564V1161ZM417.581 1161H420.59V1160H417.581V1161ZM423.599 1161H426.607V1160H423.599V1161ZM429.616 1161H432.624V1160H429.616V1161ZM435.633 1161H438.642V1160H435.633V1161ZM441.65 1161H444.659V1160H441.65V1161ZM447.667 1161H450.676V1160H447.667V1161ZM453.685 1161H456.693V1160H453.685V1161ZM459.702 1161H462.71V1160H459.702V1161ZM465.719 1161H468.728V1160H465.719V1161ZM471.736 1161H474.745V1160H471.736V1161ZM477.753 1161H480.762V1160H477.753V1161ZM483.771 1161H486.779V1160H483.771V1161ZM489.788 1161H492.796V1160H489.788V1161ZM495.805 1161H498.814V1160H495.805V1161ZM501.822 1161H504.831V1160H501.822V1161ZM507.84 1161H510.848V1160H507.84V1161ZM513.857 1161H516.865V1160H513.857V1161ZM519.874 1161H522.883V1160H519.874V1161ZM525.891 1161H528.9V1160H525.891V1161ZM531.908 1161H534.917V1160H531.908V1161ZM537.926 1161H540.934V1160H537.926V1161ZM543.943 1161H546.951V1160H543.943V1161ZM549.96 1161H552.969V1160H549.96V1161ZM555.977 1161H558.986V1160H555.977V1161ZM561.994 1161H565.003V1160H561.994V1161ZM568.012 1161H571.02V1160H568.012V1161ZM574.029 1161H577.037V1160H574.029V1161ZM580.046 1161H583.055V1160H580.046V1161ZM586.063 1161H589.072V1160H586.063V1161ZM592.081 1161H595.089V1160H592.081V1161ZM598.098 1161H601.106V1160H598.098V1161ZM604.115 1161H607.124V1160H604.115V1161ZM610.132 1161H613.141V1160H610.132V1161ZM616.149 1161H619.158V1160H616.149V1161ZM622.167 1161H625.175V1160H622.167V1161ZM628.184 1161H631.192V1160H628.184V1161ZM634.201 1161H637.21V1160H634.201V1161ZM640.218 1161H643.227V1160H640.218V1161ZM646.235 1161H649.244V1160H646.235V1161ZM652.253 1161H655.261V1160H652.253V1161ZM658.27 1161H661.278V1160H658.27V1161ZM664.287 1161H667.296V1160H664.287V1161ZM670.304 1161H673.313V1160H670.304V1161ZM676.321 1161H679.33V1160H676.321V1161ZM682.339 1161H685.347V1160H682.339V1161ZM688.356 1161H691.365V1160H688.356V1161ZM694.373 1161H697.382V1160H694.373V1161ZM700.39 1161H703.399V1160H700.39V1161ZM706.408 1161H709.416V1160H706.408V1161ZM712.425 1161H715.433V1160H712.425V1161ZM718.442 1161H721.451V1160H718.442V1161ZM724.459 1161H727.468V1160H724.459V1161ZM730.476 1161H733.485V1160H730.476V1161ZM736.494 1161H738V1160H736.494V1161ZM738 1161C738.48 1161 738.957 1161.01 739.431 1161.04L739.486 1160.04C738.994 1160.01 738.499 1160 738 1160V1161ZM742.274 1161.36C743.222 1161.52 744.153 1161.73 745.062 1161.99L745.339 1161.03C744.393 1160.76 743.426 1160.54 742.44 1160.37L742.274 1161.36ZM747.761 1162.93C748.646 1163.3 749.505 1163.72 750.337 1164.18L750.821 1163.3C749.957 1162.82 749.064 1162.39 748.144 1162.01L747.761 1162.93ZM752.757 1165.7C753.535 1166.25 754.281 1166.85 754.992 1167.49L755.658 1166.74C754.92 1166.08 754.145 1165.46 753.336 1164.89L752.757 1165.7ZM757.014 1169.51C757.649 1170.22 758.245 1170.96 758.799 1171.74L759.614 1171.16C759.039 1170.35 758.42 1169.58 757.76 1168.84L757.014 1169.51ZM760.323 1174.16C760.783 1174.99 761.198 1175.85 761.565 1176.74L762.489 1176.36C762.108 1175.44 761.676 1174.54 761.198 1173.68L760.323 1174.16ZM762.509 1179.44C762.771 1180.35 762.983 1181.28 763.143 1182.23L764.13 1182.06C763.963 1181.07 763.742 1180.11 763.471 1179.16L762.509 1179.44ZM763.461 1185.07C763.487 1185.54 763.5 1186.02 763.5 1186.5H764.5C764.5 1186 764.486 1185.51 764.459 1185.01L763.461 1185.07ZM763.5 1186.5V1187.99H764.5V1186.5H763.5ZM763.5 1190.96V1193.93H764.5V1190.96H763.5ZM763.5 1196.91V1199.88H764.5V1196.91H763.5ZM763.5 1202.86V1205.83H764.5V1202.86H763.5ZM763.5 1208.8V1211.78H764.5V1208.8H763.5ZM763.5 1214.75V1217.73H764.5V1214.75H763.5ZM763.5 1220.7V1223.67H764.5V1220.7H763.5ZM763.5 1226.65V1229.62H764.5V1226.65H763.5ZM763.5 1232.6V1235.57H764.5V1232.6H763.5ZM763.5 1238.54V1241.52H764.5V1238.54H763.5ZM763.5 1244.49V1247.47H764.5V1244.49H763.5ZM763.5 1250.44V1253.41H764.5V1250.44H763.5ZM763.5 1256.39V1259.36H764.5V1256.39H763.5ZM763.5 1262.34V1265.31H764.5V1262.34H763.5ZM763.5 1268.28V1271.26H764.5V1268.28H763.5ZM763.5 1274.23V1277.21H764.5V1274.23H763.5ZM763.5 1280.18V1283.15H764.5V1280.18H763.5ZM763.5 1286.13V1289.1H764.5V1286.13H763.5ZM763.5 1292.08V1295.05H764.5V1292.08H763.5ZM763.5 1298.02V1301H764.5V1298.02H763.5ZM763.5 1303.97V1306.95H764.5V1303.97H763.5ZM763.5 1309.92V1312.89H764.5V1309.92H763.5ZM763.5 1315.87V1318.84H764.5V1315.87H763.5ZM763.5 1321.82V1324.79H764.5V1321.82H763.5ZM763.5 1327.76V1330.74H764.5V1327.76H763.5ZM763.5 1333.71V1336.68H764.5V1333.71H763.5ZM763.5 1339.66V1342.63H764.5V1339.66H763.5ZM763.5 1345.61V1348.58H764.5V1345.61H763.5ZM763.5 1351.55V1354.53H764.5V1351.55H763.5ZM763.5 1357.5V1360.48H764.5V1357.5H763.5ZM763.5 1363.45V1366.42H764.5V1363.45H763.5ZM763.5 1369.4V1372.37H764.5V1369.4H763.5ZM763.5 1375.35V1378.32H764.5V1375.35H763.5ZM763.5 1381.29V1384.27H764.5V1381.29H763.5ZM763.5 1387.24V1390.22H764.5V1387.24H763.5ZM763.5 1393.19V1396.16H764.5V1393.19H763.5ZM763.5 1399.14V1402.11H764.5V1399.14H763.5ZM763.5 1405.09V1408.06H764.5V1405.09H763.5ZM763.5 1411.03V1414.01H764.5V1411.03H763.5ZM763.5 1416.98V1419.96H764.5V1416.98H763.5ZM763.5 1422.93V1425.9H764.5V1422.93H763.5ZM763.5 1428.88V1431.85H764.5V1428.88H763.5ZM763.5 1434.83V1437.8H764.5V1434.83H763.5ZM763.5 1440.77V1443.75H764.5V1440.77H763.5ZM763.5 1446.72V1449.7H764.5V1446.72H763.5ZM763.5 1452.67V1455.64H764.5V1452.67H763.5ZM763.5 1458.62V1461.59H764.5V1458.62H763.5ZM763.5 1464.56V1467.54H764.5V1464.56H763.5ZM763.5 1470.51V1472H764.5V1470.51H763.5Z" fill="#696969"/>
<path d="M769 455C769 457.761 766.761 460 764 460C761.239 460 759 457.761 759 455C759 452.239 761.239 450 764 450C766.761 450 769 452.239 769 455Z" fill="#FEB85D"/>
<path fill-rule="evenodd" clip-rule="evenodd" d="M778 455C778 462.732 771.732 469 764 469C756.268 469 750 462.732 750 455C750 447.268 756.268 441 764 441C771.732 441 778 447.268 778 455ZM764 460C766.761 460 769 457.761 769 455C769 452.239 766.761 450 764 450C761.239 450 759 452.239 759 455C759 457.761 761.239 460 764 460Z" fill="#FBF1E8"/>
<path d="M19 900C19 902.761 16.7614 905 14 905C11.2386 905 9 902.761 9 900C9 897.239 11.2386 895 14 895C16.7614 895 19 897.239 19 900Z" fill="#FEB85D"/>
<path fill-rule="evenodd" clip-rule="evenodd" d="M28 900C28 907.732 21.732 914 14 914C6.26801 914 0 907.732 0 900C0 892.268 6.26801 886 14 886C21.732 886 28 892.268 28 900ZM14 905C16.7614 905 19 902.761 19 900C19 897.239 16.7614 895 14 895C11.2386 895 9 897.239 9 900C9 902.761 11.2386 905 14 905Z" fill="#FBF1E8"/>
<path d="M769 1472C769 1474.76 766.761 1477 764 1477C761.239 1477 759 1474.76 759 1472C759 1469.24 761.239 1467 764 1467C766.761 1467 769 1469.24 769 1472Z" fill="#FEB85D"/>
<path fill-rule="evenodd" clip-rule="evenodd" d="M778 1472C778 1479.73 771.732 1486 764 1486C756.268 1486 750 1479.73 750 1472C750 1464.27 756.268 1458 764 1458C771.732 1458 778 1464.27 778 1472ZM764 1477C766.761 1477 769 1474.76 769 1472C769 1469.24 766.761 1467 764 1467C761.239 1467 759 1469.24 759 1472C759 1474.76 761.239 1477 764 1477Z" fill="#FBF1E8"/>
</svg>
