<svg width="60" height="60" viewBox="0 0 60 60" fill="none" xmlns="http://www.w3.org/2000/svg">
<rect width="60" height="60" rx="6" fill="white"/>
<path d="M44.0743 28.9927H16.8385C12.5094 28.9927 9 32.5055 9 36.8338V43.1342C9 47.4625 12.5094 50.9745 16.8385 50.9745H44.0743C48.4026 50.9745 51.9128 47.4625 51.9128 43.1342V36.8338C51.9128 32.5055 48.4026 28.9927 44.0743 28.9927ZM22.5606 33.8975H20.0285V46.4791H17.5822V33.8975H15.0519V31.7575H22.5606V33.8975ZM29.7131 46.4791H27.5433V45.2892C27.14 45.7293 26.7244 46.0652 26.2904 46.2918C25.8564 46.5281 25.4374 46.6383 25.0296 46.6383C24.5257 46.6383 24.1512 46.4782 23.8948 46.1527C23.6429 45.8281 23.5143 45.3469 23.5143 44.6968V35.6177H25.6841V43.9496C25.6841 44.2069 25.7322 44.3915 25.8188 44.5061C25.9124 44.6242 26.0612 44.6785 26.265 44.6785C26.4225 44.6785 26.6255 44.6032 26.8696 44.451C27.1155 44.297 27.3395 44.1045 27.5433 43.8665V35.6168H29.7131V46.4791ZM37.591 44.2366C37.591 45.0039 37.4204 45.5936 37.0801 46.0049C36.7415 46.4161 36.2463 46.6182 35.6049 46.6182C35.178 46.6182 34.7983 46.5412 34.4684 46.382C34.1368 46.2245 33.8245 45.9821 33.5401 45.6461V46.4782H31.344V31.7575H33.5401V36.4987C33.8341 36.1706 34.1447 35.916 34.4693 35.7454C34.8009 35.5713 35.1342 35.4873 35.4719 35.4873C36.1588 35.4873 36.682 35.7165 37.0442 36.1794C37.4082 36.6422 37.5893 37.3203 37.5893 38.2092V44.2366H37.591ZM45.1181 41.31H40.9657V43.3564C40.9657 43.9269 41.0356 44.3241 41.1774 44.5455C41.3226 44.7677 41.5667 44.8762 41.9141 44.8762C42.2746 44.8762 42.5239 44.7826 42.6691 44.5953C42.8091 44.4064 42.8844 43.9951 42.8844 43.3564V42.8621H45.1181V43.4194C45.1181 44.5324 44.8477 45.3714 44.2991 45.9375C43.7593 46.4983 42.9456 46.7766 41.8642 46.7766C40.8904 46.7766 40.1231 46.4799 39.5658 45.8832C39.0102 45.29 38.7267 44.4667 38.7267 43.4203V38.5417C38.7267 37.6029 39.0364 36.8303 39.6515 36.238C40.2648 35.6457 41.0549 35.3499 42.0269 35.3499C43.0217 35.3499 43.7856 35.6238 44.3184 36.1732C44.8512 36.7236 45.1181 37.511 45.1181 38.5408V41.31Z" fill="#263B5E"/>
<path d="M41.9351 37.2485C41.5886 37.2485 41.3419 37.3457 41.1914 37.5486C41.0374 37.7394 40.9657 38.0657 40.9657 38.5216V39.6196H42.8844V38.5216C42.8844 38.0657 42.8074 37.7385 42.6552 37.5486C42.5091 37.3465 42.265 37.2485 41.9351 37.2485Z" fill="#263B5E"/>
<path d="M34.4482 37.2114C34.2942 37.2114 34.1385 37.2455 33.9889 37.3164C33.8366 37.3855 33.6879 37.5002 33.5409 37.6489V44.4147C33.715 44.5897 33.8874 44.7245 34.0554 44.8015C34.2225 44.8758 34.3957 44.9178 34.5803 44.9178C34.8472 44.9178 35.0414 44.8408 35.1665 44.6851C35.2899 44.5311 35.3529 44.2853 35.3529 43.9379V38.3287C35.3529 37.9595 35.2794 37.683 35.1254 37.4932C34.9662 37.3059 34.7404 37.2114 34.4482 37.2114Z" fill="#263B5E"/>
<path d="M20.4048 25.2195H23.1556V18.4913L26.3587 9H23.5624L21.8598 15.4832H21.6866L19.8991 9H17.1282L20.4048 18.794V25.2195Z" fill="#263B5E"/>
<path d="M30.086 25.5215C31.1972 25.5215 32.0686 25.2302 32.7038 24.6475C33.3346 24.0621 33.6505 23.2633 33.6505 22.2397V16.0591C33.6505 15.1483 33.3276 14.3985 32.6845 13.8202C32.0371 13.2436 31.2077 12.9531 30.1962 12.9531C29.0851 12.9531 28.2005 13.2279 27.5426 13.7764C26.8864 14.325 26.5565 15.0608 26.5565 15.9909V22.1924C26.5565 23.21 26.8776 24.0149 27.5189 24.6186C28.1603 25.2197 29.0177 25.5215 30.086 25.5215ZM29.0728 15.8999C29.0728 15.64 29.1664 15.4301 29.3493 15.2656C29.5392 15.1046 29.7798 15.0267 30.079 15.0267C30.4018 15.0267 30.6635 15.1046 30.8629 15.2656C31.0615 15.4301 31.1604 15.64 31.1604 15.8999V22.419C31.1604 22.7384 31.0633 22.9921 30.8664 23.175C30.6713 23.3587 30.4088 23.4488 30.079 23.4488C29.7561 23.4488 29.5068 23.3613 29.3318 23.1776C29.1594 22.9982 29.0719 22.7462 29.0719 22.4181L29.0728 15.8999Z" fill="#263B5E"/>
<path d="M37.34 25.3942C37.7993 25.3942 38.2709 25.2629 38.7565 25.011C39.2474 24.7555 39.7172 24.3819 40.1643 23.8945V25.2201H42.608V13.2554H40.1643V22.3372C39.9368 22.597 39.684 22.8105 39.4127 22.9802C39.1362 23.1482 38.9088 23.2322 38.7294 23.2322C38.5002 23.2322 38.3313 23.1692 38.2324 23.0389C38.1318 22.9137 38.075 22.709 38.075 22.4282V13.2554H35.6348V23.255C35.6348 23.968 35.7783 24.5009 36.0617 24.8543C36.3505 25.2131 36.7722 25.3942 37.34 25.3942Z" fill="#263B5E"/>
</svg>
