<svg width="0" height="0" class="hidden">
  <symbol fill="none" xmlns="http://www.w3.org/2000/svg" viewBox="0 0 30 39" id="location">
    <path d="M15.0001 37.5007C15.0001 37.5007 28.774 24.979 28.774 15.5877C28.774 7.80768 22.6072 1.50073 15.0001 1.50073C7.39293 1.50073 1.22614 7.80768 1.22614 15.5877C1.22614 24.979 15.0001 37.5007 15.0001 37.5007Z" stroke="currentColor" stroke-width="2"></path>
    <path d="M19.4006 15.001C19.4006 17.4863 17.4307 19.501 15.0006 19.501C12.5706 19.501 10.6006 17.4863 10.6006 15.001C10.6006 12.5157 12.5706 10.501 15.0006 10.501C17.4307 10.501 19.4006 12.5157 19.4006 15.001Z" stroke="currentColor" stroke-width="2"></path>
  </symbol>
  <symbol fill="none" xmlns="http://www.w3.org/2000/svg" viewBox="0 0 37 29" id="mail">
    <path d="M3.73437 3.59467L18.5 15.8028L34.3203 3.59467M14.1048 14.5001L3.73437 25.7914M33.2656 24.8665L22.8938 14.5001M5.84375 27.625C3.5138 27.625 1.625 25.6374 1.625 23.1857V5.81434C1.625 3.36256 3.5138 1.375 5.84375 1.375H31.1562C33.4862 1.375 35.375 3.36256 35.375 5.81434V23.1857C35.375 25.6374 33.4862 27.625 31.1562 27.625H5.84375Z" stroke="currentColor" stroke-width="2" stroke-linecap="round" stroke-linejoin="round"></path>
  </symbol>
  <symbol fill="none" xmlns="http://www.w3.org/2000/svg" viewBox="0 0 36 37" id="phone">
    <path d="M34.6047 31.4769C34.6047 31.4769 32.384 33.6581 31.8397 34.2976C30.9532 35.2436 29.9086 35.6904 28.5393 35.6904C28.4076 35.6904 28.2672 35.6904 28.1355 35.6816C25.5285 35.5152 23.1059 34.4991 21.2889 33.6318C16.3207 31.2316 11.9581 27.8241 8.33292 23.5055C5.33971 19.9052 3.33838 16.5765 2.01294 13.0025C1.19661 10.8213 0.898164 9.12186 1.02983 7.51882C1.11761 6.49392 1.51261 5.64422 2.24116 4.91715L5.23437 1.93005C5.66448 1.5271 6.12093 1.30811 6.56859 1.30811C7.12159 1.30811 7.56926 1.64098 7.85014 1.92129C7.85892 1.93005 7.8677 1.93881 7.87648 1.94757C8.41192 2.44688 8.92103 2.96371 9.45647 3.51558C9.72858 3.79589 10.0095 4.07621 10.2904 4.36528L12.6867 6.75671C13.6171 7.68525 13.6171 8.54372 12.6867 9.47226C12.4321 9.72629 12.1864 9.98032 11.9318 10.2256C11.1945 10.9789 11.7737 10.4009 11.01 11.0842C10.9925 11.1017 10.9749 11.1105 10.9661 11.128C10.2112 11.8813 10.3517 12.6171 10.5097 13.1165C10.5185 13.1427 10.5272 13.169 10.536 13.1953C11.1592 14.702 12.037 16.1211 13.3712 17.8117L13.38 17.8205C15.8027 20.7988 18.357 23.1202 21.1747 24.8984C21.5345 25.1262 21.9032 25.3101 22.2543 25.4853C22.5703 25.643 22.8688 25.7919 23.1233 25.9496C23.1584 25.9671 23.1935 25.9934 23.2287 26.0109C23.5271 26.1598 23.808 26.2299 24.0977 26.2299C24.8262 26.2299 25.2826 25.7744 25.4319 25.6255L27.1524 23.9084C27.4509 23.6106 27.9249 23.2514 28.4779 23.2514C29.0221 23.2514 29.4698 23.5931 29.7419 23.8909C29.7506 23.8997 29.7506 23.8997 29.7594 23.9084L34.596 28.7351C35.5001 29.6286 34.6047 31.4769 34.6047 31.4769Z" stroke="currentColor" stroke-width="2" stroke-linecap="round" stroke-linejoin="round"></path>
  </symbol>
</svg>